<svg width="193" height="244" viewBox="0 0 193 244" fill="none" xmlns="http://www.w3.org/2000/svg">
<g clip-path="url(#clip0_4055_358)">
<path d="M192.467 0.543945H0.543701V243.468H192.467V0.543945Z" fill="white"/>
<path d="M42.5193 181.576V180.616H47.4393V181.576H45.5193V184.016C45.5193 186.436 46.4693 187.416 47.5193 187.916V188.916C46.3893 188.526 45.4093 187.646 44.9693 186.686C44.5293 187.646 43.5393 188.536 42.4193 188.916V187.916C43.4493 187.426 44.4193 186.436 44.4193 184.016V181.576H42.5193ZM49.8693 180.456V189.526H48.7793V184.826H46.7793V183.876H48.7793V180.456H49.8693ZM51.7389 181.506V180.566H56.4289V181.506H54.6289V181.846C54.6289 183.386 55.4589 184.116 56.5889 184.366V185.326C55.5089 185.136 54.5789 184.566 54.1089 183.796C53.6289 184.576 52.6889 185.266 51.5789 185.446V184.476C52.7389 184.226 53.5389 183.416 53.5389 181.846V181.506H51.7389ZM58.9489 180.456V182.496H60.2689V183.446H58.9489V185.626H57.8589V180.456H58.9489ZM52.1389 187.806C52.1389 187.256 52.3989 186.836 52.8089 186.526C53.4589 186.066 54.4789 185.876 55.6589 185.876C56.8289 185.876 57.8589 186.066 58.4989 186.526C58.9089 186.836 59.1689 187.256 59.1689 187.806C59.1689 188.366 58.9089 188.786 58.4989 189.096C57.8589 189.556 56.8289 189.736 55.6589 189.736C54.4789 189.736 53.4589 189.556 52.8089 189.096C52.3989 188.786 52.1389 188.366 52.1389 187.806ZM53.2289 187.806C53.2289 188.056 53.3589 188.266 53.5989 188.426C53.9989 188.696 54.7289 188.806 55.6589 188.806C56.5789 188.806 57.3089 188.696 57.7289 188.426C57.9589 188.266 58.0789 188.056 58.0789 187.806C58.0789 187.556 57.9589 187.346 57.7289 187.186C57.3089 186.926 56.5789 186.806 55.6589 186.806C54.7289 186.806 53.9989 186.926 53.5989 187.186C53.3589 187.346 53.2289 187.556 53.2289 187.806ZM66.0186 181.496H62.4086V182.996H66.0686V183.926H64.2286V185.166H65.6686C66.4786 185.166 67.0686 185.016 67.3986 184.786V180.456H68.4886V187.096H67.3986V185.676C67.0286 185.976 66.4086 186.116 65.3886 186.116H60.8386V185.166H63.1486V183.926H61.3386V180.566H66.0186V181.496ZM68.6486 189.616H61.7086V186.886H62.7986V188.676H68.6486V189.616ZM74.4483 181.526H79.2583V180.566H80.3483V184.276H73.3683V180.566H74.4483V181.526ZM79.2583 183.356V182.446H74.4483V183.356H79.2583ZM72.7683 185.956V185.026H80.9383V185.956H77.3983V187.006H80.3483V189.676H79.2583V187.926H73.3083V187.006H76.3083V185.956H72.7683ZM86.7679 180.616V188.916H82.3679V180.616H86.7679ZM83.4479 187.976H85.6879V181.576H83.4479V187.976ZM89.4579 180.456V184.156H90.8779V185.106H89.4579V189.526H88.3679V180.456H89.4579ZM97.9075 184.826C97.1275 184.996 96.1275 185.046 95.0475 185.046H91.8975V184.096H95.0675C96.0975 184.096 97.1475 184.056 97.9175 183.916V181.576H91.8975V180.616H99.0075V183.966C99.0075 185.066 98.9175 186.316 98.7575 187.136H97.6675C97.7975 186.506 97.8775 185.636 97.9075 184.826ZM91.4275 189.126V188.186H99.4775V189.126H91.4275ZM104.287 182.576V181.576H100.967V180.616H105.367V182.446C105.367 185.906 104.047 188.196 100.917 188.996V187.966C103.247 187.296 104.287 185.416 104.287 182.576ZM108.057 180.456V184.156H109.477V185.106H108.057V189.526H106.967V180.456H108.057ZM112.757 182.736C112.757 181.916 113.067 181.296 113.567 180.896C113.977 180.576 114.517 180.396 115.137 180.396C115.767 180.396 116.307 180.576 116.707 180.896C117.117 181.216 117.387 181.676 117.477 182.266H119.117V180.456H120.207V185.246H119.117V183.196H117.487C117.397 183.796 117.117 184.266 116.707 184.576C116.307 184.906 115.767 185.086 115.137 185.086C114.517 185.086 113.977 184.906 113.567 184.576C113.067 184.186 112.757 183.566 112.757 182.736ZM113.817 182.736C113.817 183.206 113.977 183.596 114.257 183.826C114.477 184.036 114.787 184.146 115.137 184.146C115.487 184.146 115.797 184.036 116.027 183.826C116.307 183.596 116.457 183.206 116.457 182.736C116.457 182.266 116.307 181.896 116.027 181.646C115.797 181.446 115.487 181.336 115.137 181.336C114.787 181.336 114.477 181.446 114.257 181.646C113.977 181.896 113.817 182.266 113.817 182.736ZM115.687 186.816V185.726H116.687V189.616H113.317V185.726H114.327V186.816H115.687ZM115.687 187.696H114.327V188.726H115.687V187.696ZM118.247 185.726H119.317V186.616C119.317 187.786 119.767 188.386 120.517 188.716V189.656C119.817 189.496 119.127 189.026 118.797 188.486C118.467 189.026 117.767 189.506 117.077 189.656V188.716C117.837 188.396 118.247 187.786 118.247 186.616V185.726ZM125.947 182.276C125.207 183.086 123.707 183.716 122.137 183.836V182.896C123.757 182.716 125.407 181.976 125.407 180.706V180.516H126.487V180.706C126.487 181.976 128.087 182.686 129.777 182.896V183.836C128.157 183.696 126.727 183.086 125.947 182.276ZM121.877 185.356V184.436H130.047V185.356H121.877ZM122.477 186.036H123.557V186.896H128.367V186.036H129.457V189.616H122.477V186.036ZM128.367 188.706V187.816H123.557V188.706H128.367ZM135.566 188.916H131.546V180.566H132.626V187.966H135.766C136.616 187.966 137.296 187.776 137.696 187.426V180.456H138.786V189.526H137.696V188.306C137.316 188.696 136.516 188.916 135.566 188.916ZM144.706 188.916H140.776V180.616H145.146V181.576H141.856V187.966H144.906C145.736 187.966 146.396 187.786 146.776 187.446V180.456H147.866V184.156H149.286V185.106H147.866V189.526H146.776V188.346C146.406 188.706 145.626 188.916 144.706 188.916ZM151.225 187.596V188.926H149.985V187.596H151.225Z" fill="#939090"/>
<path d="M59.122 199.897H62.79V199.155H63.35V201.654H58.562V199.155H59.122V199.897ZM62.79 201.171V200.38H59.122V201.171H62.79ZM58.135 202.802V202.319H63.777V202.802H61.236V203.719H63.35V205.455H62.79V204.195H58.513V203.719H60.669V202.802H58.135ZM67.8507 204.909H64.8547V199.197H67.8507V204.909ZM67.2907 204.426V199.687H65.4147V204.426H67.2907ZM69.7267 199.085V201.717H70.7487V202.207H69.7267V205.35H69.1667V199.085H69.7267ZM75.8515 201.99C75.3125 202.123 74.5215 202.165 73.7725 202.165H71.5255V201.675H73.7795C74.5005 201.675 75.3195 201.633 75.8585 201.507V199.687H71.5255V199.197H76.4185V201.57C76.4185 202.326 76.3555 203.166 76.2435 203.733H75.6905C75.7815 203.257 75.8375 202.592 75.8515 201.99ZM71.1895 205.07V204.58H76.7615V205.07H71.1895ZM78.6512 200.534V201.087H82.9212V201.514H78.0912V200.114H82.3192V199.589H78.0912V199.155H82.8792V200.534H78.6512ZM77.6642 202.515V202.06H83.3062V202.515H77.6642ZM78.6512 204.44V205.007H83.0332V205.42H78.0912V204.034H82.3192V203.495H78.0912V203.075H82.8792V204.44H78.6512ZM86.372 200.135V199.645H88.528V198.847H89.095V199.645H91.265V200.135H89.095C89.144 201.192 90.222 201.822 91.321 202.004V202.508C90.187 202.319 89.256 201.822 88.815 201.066C88.381 201.822 87.415 202.319 86.295 202.508V202.004C87.373 201.829 88.472 201.192 88.528 200.135H86.372ZM86.036 203.74V203.25H91.608V203.74H89.095V205.455H88.528V203.74H86.036ZM95.1568 200.52V199.687H92.7208V199.197H95.7168V200.464C95.7168 202.858 94.7648 204.405 92.6788 204.958V204.433C94.3518 203.943 95.1568 202.592 95.1568 200.52ZM97.5928 199.085V201.717H98.6148V202.207H97.5928V205.35H97.0328V199.085H97.5928ZM99.1045 200.345V199.855H100.175V198.889H100.742V199.855H101.778V200.345H99.1045ZM99.7835 202.991C99.7835 203.747 99.8955 204.195 100.105 204.405C100.203 204.51 100.322 204.559 100.462 204.559C100.602 204.559 100.728 204.51 100.819 204.405C101.029 204.195 101.141 203.747 101.141 202.991C101.141 202.235 101.029 201.787 100.819 201.577C100.728 201.472 100.602 201.43 100.462 201.43C100.322 201.43 100.203 201.472 100.105 201.577C99.8955 201.787 99.7835 202.235 99.7835 202.991ZM99.2445 202.991C99.2445 202.081 99.4195 201.465 99.7975 201.164C99.9795 201.024 100.203 200.947 100.462 200.947C100.728 200.947 100.952 201.024 101.127 201.164C101.505 201.465 101.687 202.081 101.687 202.991C101.687 203.908 101.505 204.517 101.127 204.818C100.952 204.965 100.728 205.028 100.462 205.028C100.203 205.028 99.9795 204.965 99.7975 204.818C99.4195 204.517 99.2445 203.908 99.2445 202.991ZM104.347 205.35H103.808V202.158H102.968V205.28H102.436V199.12H102.968V201.668H103.808V199.085H104.347V205.35ZM106.461 200.513H110.234V199.197H110.794V202.949H108.645V204.58H111.137V205.07H105.565V204.58H108.078V202.949H105.901V199.197H106.461V200.513ZM110.234 202.452V201.01H106.461V202.452H110.234ZM113.342 203.362C113.139 203.985 112.628 204.573 111.935 204.909V204.391C112.579 204.006 113.062 203.327 113.062 201.913V199.155H113.615V201.913C113.615 203.334 114.105 203.999 114.756 204.398V204.916C114.07 204.573 113.559 203.985 113.342 203.362ZM115.953 205.28H115.407V201.934H114.336V201.451H115.407V199.12H115.953V205.28ZM117.367 205.35H116.821V199.085H117.367V205.35ZM118.781 200.975C118.781 200.422 118.998 199.988 119.376 199.673C119.838 199.309 120.524 199.127 121.371 199.127C122.225 199.127 122.911 199.309 123.366 199.673C123.744 199.988 123.961 200.422 123.961 200.975C123.961 201.535 123.744 201.969 123.366 202.27C123.219 202.389 123.044 202.494 122.848 202.578V204.58H124.157V205.07H118.585V204.58H119.936V202.592C119.726 202.508 119.537 202.403 119.376 202.27C118.998 201.969 118.781 201.535 118.781 200.975ZM122.288 202.746C122.008 202.802 121.7 202.83 121.371 202.83C121.056 202.83 120.755 202.802 120.489 202.753V204.58H122.288V202.746ZM119.341 200.975C119.341 201.367 119.502 201.675 119.775 201.899C120.125 202.193 120.685 202.333 121.371 202.333C122.057 202.333 122.624 202.193 122.974 201.899C123.254 201.675 123.401 201.367 123.401 200.975C123.401 200.59 123.254 200.282 122.974 200.051C122.624 199.757 122.057 199.624 121.371 199.624C120.685 199.624 120.125 199.757 119.775 200.051C119.502 200.282 119.341 200.59 119.341 200.975ZM125.878 200.443L125.822 203.411H125.346L125.283 200.443V199.484H125.878V200.443ZM125.892 204.216V204.972H125.276V204.216H125.892Z" fill="#A0A0A0"/>
<path d="M121.882 72.7064C111.495 72.7064 100.959 72.2923 91.0806 69.5063C81.2024 66.7203 72.5404 61.5122 64.561 55.413C59.3737 51.4348 54.6332 48.2848 47.9071 48.7617C41.314 49.1135 35.0085 51.6042 29.9253 55.8648C21.3502 63.3946 22.6532 77.4879 26.0783 87.3644C31.2284 102.236 46.9143 112.564 60.292 119.303C75.6925 127.084 92.5574 131.602 109.571 134.2C124.463 136.484 143.537 138.14 156.418 128.326C168.257 119.303 171.508 98.7093 168.604 84.7918C167.87 80.6965 165.686 77.0117 162.462 74.4257C154.159 68.289 141.75 72.3927 132.418 72.5935C128.943 72.606 125.418 72.6939 121.882 72.7064Z" fill="#F5F5F5"/>
<path d="M140.465 40.7385C141.078 40.7385 141.575 40.2414 141.575 39.6283C141.575 39.0151 141.078 38.5181 140.465 38.5181C139.851 38.5181 139.354 39.0151 139.354 39.6283C139.354 40.2414 139.851 40.7385 140.465 40.7385Z" fill="#CFCFCF"/>
<path d="M56.6254 86.3596C57.2386 86.3596 57.7357 85.8625 57.7357 85.2494C57.7357 84.6362 57.2386 84.1392 56.6254 84.1392C56.0122 84.1392 55.5151 84.6362 55.5151 85.2494C55.5151 85.8625 56.0122 86.3596 56.6254 86.3596Z" fill="#CFCFCF"/>
<path d="M101.253 156.953C124.185 156.953 142.776 155.797 142.776 154.37C142.776 152.944 124.185 151.787 101.253 151.787C78.3202 151.787 59.7297 152.944 59.7297 154.37C59.7297 155.797 78.3202 156.953 101.253 156.953Z" fill="#F2F2F2"/>
<path d="M121.421 128.43L99.3109 115.248C98.559 114.803 97.7003 114.568 96.8253 114.568C95.9503 114.568 95.0915 114.803 94.3396 115.248L72.7395 128.331C72.0047 128.776 71.1638 129.018 70.3033 129.034C69.4428 129.049 68.5938 128.836 67.8434 128.418C67.093 127.999 66.4683 127.39 66.0335 126.652C65.5988 125.915 65.3696 125.076 65.3696 124.221V45.5974C65.3696 44.3207 65.8803 43.0963 66.7893 42.1936C67.6983 41.2908 68.9311 40.7837 70.2166 40.7837H123.968C125.253 40.7869 126.484 41.2951 127.392 42.1972C128.3 43.0992 128.812 44.3217 128.815 45.5974V124.295C128.822 125.155 128.597 126.002 128.163 126.747C127.729 127.492 127.102 128.107 126.346 128.529C125.591 128.952 124.736 129.165 123.87 129.147C123.003 129.13 122.158 128.882 121.421 128.43Z" fill="#AEAEAE"/>
<path d="M131.274 138.619L107.985 124.755C107.187 124.277 106.272 124.024 105.339 124.024C104.406 124.024 103.491 124.277 102.693 124.755L79.943 138.532C79.1677 138.999 78.2809 139.254 77.3736 139.27C76.4663 139.285 75.5711 139.062 74.7798 138.621C73.9885 138.181 73.3295 137.54 72.8705 136.764C72.4114 135.988 72.1688 135.105 72.1675 134.205V51.5087C72.1708 50.1655 72.7114 48.8783 73.6706 47.9297C74.6298 46.981 75.9294 46.4482 77.2843 46.4482H133.908C135.262 46.4482 136.56 46.9814 137.517 47.9304C138.474 48.8795 139.012 50.1666 139.012 51.5087V134.28C139.013 135.176 138.774 136.057 138.318 136.832C137.863 137.606 137.208 138.247 136.421 138.689C135.634 139.13 134.742 139.356 133.838 139.344C132.934 139.332 132.049 139.082 131.274 138.619Z" fill="white" stroke="#BABABA" stroke-linecap="round" stroke-linejoin="round"/>
<path d="M101.797 58.9097H51.1527C49.182 58.9097 47.5845 60.521 47.5845 62.5086V73.4369C47.5845 75.4245 49.182 77.0358 51.1527 77.0358H101.797C103.768 77.0358 105.366 75.4245 105.366 73.4369V62.5086C105.366 60.521 103.768 58.9097 101.797 58.9097Z" fill="white" stroke="#DDDDDD" stroke-linecap="round" stroke-linejoin="round"/>
<path d="M66.2783 69.6884C67.2169 69.6884 67.9777 68.9276 67.9777 67.989C67.9777 67.0504 67.2169 66.2896 66.2783 66.2896C65.3397 66.2896 64.5789 67.0504 64.5789 67.989C64.5789 68.9276 65.3397 69.6884 66.2783 69.6884Z" fill="#D2D2D2"/>
<path d="M75.342 69.6884C76.2806 69.6884 77.0415 68.9276 77.0415 67.989C77.0415 67.0504 76.2806 66.2896 75.342 66.2896C74.4034 66.2896 73.6426 67.0504 73.6426 67.989C73.6426 68.9276 74.4034 69.6884 75.342 69.6884Z" fill="#D2D2D2"/>
<path d="M84.4057 69.6884C85.3443 69.6884 86.1052 68.9276 86.1052 67.989C86.1052 67.0504 85.3443 66.2896 84.4057 66.2896C83.4672 66.2896 82.7063 67.0504 82.7063 67.989C82.7063 68.9276 83.4672 69.6884 84.4057 69.6884Z" fill="#D2D2D2"/>
<mask id="mask0_4055_358" style="mask-type:alpha" maskUnits="userSpaceOnUse" x="83" y="49" width="25" height="25">
<rect x="83.0251" y="49" width="24.595" height="24.5932" fill="#D2D2D2"/>
</mask>
<g mask="url(#mask0_4055_358)">
<path d="M95.3226 69.2302L97.2697 71.1773C97.4575 71.3651 97.6967 71.4591 97.987 71.4591C98.2774 71.4591 98.5165 71.3651 98.7044 71.1773C98.8922 70.9894 98.9862 70.7503 98.9862 70.4599C98.9862 70.1696 98.8922 69.9304 98.7044 69.7426L96.7573 67.7955L98.7044 65.8484C98.8922 65.6605 98.9862 65.4214 98.9862 65.131C98.9862 64.8406 98.8922 64.6015 98.7044 64.4137C98.5165 64.2258 98.2774 64.1318 97.987 64.1318C97.6967 64.1318 97.4575 64.2258 97.2697 64.4137L95.3226 66.3608L93.3755 64.4137C93.1876 64.2258 92.9485 64.1318 92.6581 64.1318C92.3677 64.1318 92.1286 64.2258 91.9408 64.4137C91.7529 64.6015 91.6589 64.8406 91.6589 65.131C91.6589 65.4214 91.7529 65.6605 91.9408 65.8484L93.8879 67.7955L91.9408 69.7426C91.7529 69.9304 91.6589 70.1696 91.6589 70.4599C91.6589 70.7503 91.7529 70.9894 91.9408 71.1773C92.1286 71.3651 92.3677 71.4591 92.6581 71.4591C92.9485 71.4591 93.1876 71.3651 93.3755 71.1773L95.3226 69.2302Z" fill="#D2D2D2"/>
</g>
<path d="M144.446 143.118C145.364 143.113 147.321 142.743 147.321 142.743C147.321 142.743 145.438 142.395 144.442 142.4C144.244 142.401 143.884 142.443 143.886 142.762C143.888 143.061 144.248 143.119 144.446 143.118Z" fill="#CFCFCF"/>
<path d="M150.124 142.368C149.206 142.373 147.249 142.743 147.249 142.743C147.249 142.743 149.132 143.092 150.128 143.086C150.326 143.085 150.686 143.044 150.684 142.724C150.682 142.426 150.322 142.368 150.124 142.369L150.124 142.368Z" fill="#CFCFCF"/>
<path d="M147.659 145.581C147.654 144.66 147.285 142.697 147.285 142.697C147.285 142.697 146.937 144.586 146.943 145.585C146.944 145.783 146.985 146.144 147.304 146.142C147.601 146.14 147.66 145.779 147.659 145.581Z" fill="#CFCFCF"/>
<path d="M146.911 139.906C146.917 140.827 147.285 142.79 147.285 142.79C147.285 142.79 147.633 140.901 147.627 139.902C147.626 139.704 147.585 139.343 147.266 139.345C146.969 139.346 146.91 139.708 146.911 139.906Z" fill="#CFCFCF"/>
<path d="M147.845 63.8163C148.762 63.8113 150.72 63.4413 150.72 63.4413C150.72 63.4413 148.837 63.093 147.841 63.0986C147.643 63.0997 147.283 63.141 147.285 63.4607C147.287 63.7588 147.647 63.8175 147.845 63.8163Z" fill="#CFCFCF"/>
<path d="M153.523 63.0666C152.605 63.0716 150.648 63.4416 150.648 63.4416C150.648 63.4416 152.531 63.7899 153.527 63.7843C153.725 63.7835 154.084 63.7419 154.083 63.4225C154.081 63.1244 153.721 63.0658 153.523 63.0669L153.523 63.0666Z" fill="#CFCFCF"/>
<path d="M151.058 66.2789C151.053 65.3585 150.684 63.395 150.684 63.395C150.684 63.395 150.336 65.2838 150.342 66.2831C150.343 66.4812 150.384 66.8422 150.703 66.8402C151 66.8386 151.059 66.477 151.058 66.2789Z" fill="#CFCFCF"/>
<path d="M150.31 60.6044C150.315 61.5248 150.684 63.4882 150.684 63.4882C150.684 63.4882 151.032 61.5994 151.026 60.6002C151.025 60.402 150.984 60.0413 150.665 60.043C150.368 60.0447 150.309 60.4062 150.31 60.6044Z" fill="#CFCFCF"/>
<path d="M44.7451 119.327C45.6628 119.322 47.6205 118.952 47.6205 118.952C47.6205 118.952 45.7373 118.604 44.7409 118.609C44.5433 118.61 44.1834 118.652 44.1854 118.971C44.1871 119.27 44.5475 119.328 44.7451 119.327Z" fill="#CFCFCF"/>
<path d="M50.4234 118.577C49.5057 118.582 47.548 118.952 47.548 118.952C47.548 118.952 49.4313 119.301 50.4276 119.295C50.6252 119.294 50.9848 119.253 50.9831 118.933C50.9815 118.635 50.621 118.576 50.4234 118.578L50.4234 118.577Z" fill="#CFCFCF"/>
<path d="M47.958 121.79C47.953 120.869 47.5841 118.906 47.5841 118.906C47.5841 118.906 47.2368 120.795 47.2424 121.794C47.2435 121.992 47.2847 122.353 47.6034 122.351C47.9007 122.349 47.9592 121.988 47.958 121.79Z" fill="#CFCFCF"/>
<path d="M47.2108 116.115C47.2158 117.035 47.5847 118.999 47.5847 118.999C47.5847 118.999 47.932 117.11 47.9264 116.111C47.9253 115.913 47.8842 115.552 47.5654 115.554C47.2682 115.555 47.2097 115.917 47.2108 116.115Z" fill="#CFCFCF"/>
</g>
<defs>
<clipPath id="clip0_4055_358">
<rect width="193" height="244" fill="white"/>
</clipPath>
</defs>
</svg>
