<svg width="193" height="244" viewBox="0 0 193 244" fill="none" xmlns="http://www.w3.org/2000/svg">
<g clip-path="url(#clip0_4055_241)">
<path d="M192.467 0.543945H0.543701V243.468H192.467V0.543945Z" fill="white"/>
<path d="M123.064 79.3139C112.128 79.3139 100.997 78.8714 90.584 75.9819C80.3671 73.1575 70.9864 67.6779 62.6248 61.3392C57.1505 57.2132 52.1727 53.9333 45.0653 54.4279C38.1108 54.7963 31.4597 57.3838 26.0949 61.8078C17.0538 69.6953 18.4126 84.299 22.0316 94.5423C27.4667 109.992 44.0071 120.743 58.0651 127.719C74.3049 135.802 92.1518 140.488 110.038 143.195C125.716 145.564 145.862 147.295 159.45 137.091C171.927 127.719 175.35 106.322 172.293 91.8741C171.552 87.6022 169.271 83.7468 165.878 81.032C157.111 74.6543 144.033 78.9105 134.182 79.1317C130.524 79.2098 126.8 79.2879 123.064 79.3139Z" fill="#F5F5F5"/>
<path d="M96.5056 159.397C119.476 159.397 138.097 158.235 138.097 156.802C138.097 155.37 119.476 154.208 96.5056 154.208C73.5355 154.208 54.9146 155.37 54.9146 156.802C54.9146 158.235 73.5355 159.397 96.5056 159.397Z" fill="#F5F5F5"/>
<path d="M148.407 46.4255C149.02 46.4255 149.517 45.9285 149.517 45.3153C149.517 44.7021 149.02 44.2051 148.407 44.2051C147.793 44.2051 147.296 44.7021 147.296 45.3153C147.296 45.9285 147.793 46.4255 148.407 46.4255Z" fill="#CFCFCF"/>
<path d="M74.5488 37.1247C75.162 37.1247 75.6591 36.6277 75.6591 36.0145C75.6591 35.4014 75.162 34.9043 74.5488 34.9043C73.9356 34.9043 73.4385 35.4014 73.4385 36.0145C73.4385 36.6277 73.9356 37.1247 74.5488 37.1247Z" fill="#CFCFCF"/>
<path d="M87.2153 144.964C87.8285 144.964 88.3256 144.467 88.3256 143.853C88.3256 143.24 87.8285 142.743 87.2153 142.743C86.6021 142.743 86.105 143.24 86.105 143.853C86.105 144.467 86.6021 144.964 87.2153 144.964Z" fill="#CFCFCF"/>
<path d="M117.406 39.5901L47.82 48.727C43.3098 49.3192 40.0188 52.5805 40.4693 56.0113L48.5379 117.452C48.9884 120.883 53.0099 123.184 57.5201 122.592L127.106 113.455C131.616 112.863 134.907 109.601 134.457 106.171L126.388 44.7298C125.938 41.299 121.916 38.9979 117.406 39.5901Z" fill="#D2D2D2"/>
<path d="M141.531 52.1123H63.5354C58.4801 52.1123 54.3821 55.1409 54.3821 58.8768V125.782C54.3821 129.518 58.4801 132.547 63.5354 132.547H141.531C146.586 132.547 150.684 129.518 150.684 125.782V58.8768C150.684 55.1409 146.586 52.1123 141.531 52.1123Z" fill="white" stroke="#DDDDDD" stroke-linecap="round" stroke-linejoin="round"/>
<path d="M60.4497 181.455C59.8397 182.475 58.4597 183.255 56.5797 183.545V182.585C58.5797 182.215 59.8997 181.205 59.8997 179.445V179.065H60.9797V179.445C60.9797 181.205 62.3197 182.205 64.3197 182.585V183.545C62.4497 183.255 61.0597 182.475 60.4497 181.455ZM56.4297 185.785V184.825H64.4797V185.785H60.9797V188.225H59.8997V185.785H56.4297ZM65.9694 180.055V179.115H70.6494V180.055H68.8494V180.225C68.8494 181.765 69.6894 182.485 70.8194 182.745V183.705C69.7294 183.515 68.7994 182.945 68.3294 182.175C67.8794 182.965 66.9094 183.615 65.8094 183.815V182.845C66.9594 182.605 67.7694 181.785 67.7694 180.225V180.055H65.9694ZM73.2994 183.765H72.2094V179.005H73.2994V183.765ZM72.2094 185.335V184.275H73.2994V188.165H66.5194V184.275H67.6094V185.335H72.2094ZM72.2094 186.265H67.6094V187.245H72.2094V186.265ZM82.549 179.115V181.865H75.569V179.115H82.549ZM76.649 180.985H81.459V180.005H76.649V180.985ZM74.969 183.425V182.505H83.139V183.425H79.579V184.205H82.549V186.625H76.649V187.285H82.749V188.165H75.569V185.755H81.459V185.085H75.569V184.205H78.509V183.425H74.969ZM88.1386 183.295C88.1386 181.855 88.0386 180.805 87.6586 180.325C87.4786 180.075 87.1986 179.945 86.8686 179.945C86.5486 179.945 86.2686 180.075 86.0786 180.325C85.7186 180.805 85.6086 181.855 85.6086 183.295C85.6086 184.735 85.7186 185.785 86.0786 186.275C86.2686 186.505 86.5486 186.635 86.8686 186.635C87.1986 186.635 87.4786 186.505 87.6586 186.275C88.0386 185.785 88.1386 184.735 88.1386 183.295ZM84.5286 183.295C84.5286 181.655 84.6886 180.425 85.2686 179.715C85.6386 179.255 86.1986 179.005 86.8686 179.005C87.5486 179.005 88.0986 179.255 88.4786 179.715C89.0586 180.425 89.2186 181.655 89.2186 183.295C89.2186 184.935 89.0586 186.165 88.4786 186.875C88.0986 187.335 87.5486 187.565 86.8686 187.565C86.1986 187.565 85.6386 187.335 85.2686 186.875C84.6886 186.165 84.5286 184.935 84.5286 183.295ZM91.8786 179.005V188.075H90.7886V179.005H91.8786ZM96.3583 181.285C96.3583 180.465 96.6683 179.845 97.1683 179.445C97.5783 179.125 98.1183 178.945 98.7383 178.945C99.3683 178.945 99.9083 179.125 100.308 179.445C100.718 179.765 100.988 180.225 101.078 180.815H102.718V179.005H103.808V183.795H102.718V181.745H101.088C100.998 182.345 100.718 182.815 100.308 183.125C99.9083 183.455 99.3683 183.635 98.7383 183.635C98.1183 183.635 97.5783 183.455 97.1683 183.125C96.6683 182.735 96.3583 182.115 96.3583 181.285ZM97.4183 181.285C97.4183 181.755 97.5783 182.145 97.8583 182.375C98.0783 182.585 98.3883 182.695 98.7383 182.695C99.0883 182.695 99.3983 182.585 99.6283 182.375C99.9083 182.145 100.058 181.755 100.058 181.285C100.058 180.815 99.9083 180.445 99.6283 180.195C99.3983 179.995 99.0883 179.885 98.7383 179.885C98.3883 179.885 98.0783 179.995 97.8583 180.195C97.5783 180.445 97.4183 180.815 97.4183 181.285ZM99.2883 185.365V184.275H100.288V188.165H96.9183V184.275H97.9283V185.365H99.2883ZM99.2883 186.245H97.9283V187.275H99.2883V186.245ZM101.848 184.275H102.918V185.165C102.918 186.335 103.368 186.935 104.118 187.265V188.205C103.418 188.045 102.728 187.575 102.398 187.035C102.068 187.575 101.368 188.055 100.678 188.205V187.265C101.438 186.945 101.848 186.335 101.848 185.165V184.275ZM109.548 180.825C108.808 181.635 107.308 182.265 105.738 182.385V181.445C107.358 181.265 109.008 180.525 109.008 179.255V179.065H110.088V179.255C110.088 180.525 111.688 181.235 113.378 181.445V182.385C111.758 182.245 110.328 181.635 109.548 180.825ZM105.478 183.905V182.985H113.648V183.905H105.478ZM106.078 184.585H107.158V185.445H111.968V184.585H113.058V188.165H106.078V184.585ZM111.968 187.255V186.365H107.158V187.255H111.968ZM119.168 187.465H115.148V179.115H116.228V186.515H119.368C120.218 186.515 120.898 186.325 121.298 185.975V179.005H122.388V188.075H121.298V186.855C120.918 187.245 120.118 187.465 119.168 187.465ZM128.307 187.465H124.377V179.165H128.747V180.125H125.457V186.515H128.507C129.337 186.515 129.997 186.335 130.377 185.995V179.005H131.467V182.705H132.887V183.655H131.467V188.075H130.377V186.895C130.007 187.255 129.227 187.465 128.307 187.465ZM134.827 186.145V187.475H133.587V186.145H134.827Z" fill="#939090"/>
<path d="M65.5601 198.433C65.1751 199.189 64.2441 199.77 62.8861 200.001V199.504C64.2721 199.238 65.2731 198.524 65.2731 197.278V196.956H65.8401V197.278C65.8401 198.517 66.8621 199.231 68.2341 199.504V200.001C66.8901 199.763 65.9521 199.196 65.5601 198.433ZM62.7811 201.541V201.044H68.3531V201.541H65.8401V203.291H65.2731V201.541H62.7811ZM69.4658 196.991H72.6438V197.481H71.3348V197.796C71.3348 198.86 71.9998 199.406 72.7558 199.588V200.085C71.9998 199.931 71.3558 199.483 71.0688 198.895C70.7888 199.497 70.1378 200.015 69.3608 200.169V199.665C70.1378 199.497 70.7748 198.874 70.7748 197.796V197.481H69.4658V196.991ZM74.5128 200.176H73.9528V196.921H74.5128V200.176ZM73.9528 201.436V200.624H74.5128V203.256H69.8578V200.624H70.4248V201.436H73.9528ZM73.9528 201.919H70.4248V202.773H73.9528V201.919ZM80.9805 198.811H76.1925V196.991H80.9805V198.811ZM80.4205 198.349V197.46H76.7525V198.349H80.4205ZM75.7655 199.91V199.427H81.4075V199.91H78.8595V200.617H80.9805V202.171H76.7525V202.801H81.1345V203.256H76.1925V201.709H80.4205V201.072H76.1925V200.617H78.2995V199.91H75.7655ZM82.5763 197.894C82.5763 197.635 82.6743 197.446 82.8843 197.292C83.2693 197.026 83.9973 196.921 85.1033 196.921C86.2093 196.921 86.9373 197.026 87.3153 197.292C87.5253 197.446 87.6303 197.635 87.6303 197.894C87.6303 198.139 87.5253 198.335 87.3153 198.482C86.9373 198.755 86.2093 198.867 85.1033 198.867C83.9973 198.867 83.2693 198.755 82.8843 198.482C82.6743 198.335 82.5763 198.139 82.5763 197.894ZM83.1433 197.894C83.1433 198.006 83.1923 198.097 83.3043 198.167C83.5633 198.335 84.1443 198.398 85.1033 198.398C86.0623 198.398 86.6433 198.335 86.9023 198.167C87.0143 198.097 87.0633 198.006 87.0633 197.894C87.0633 197.782 87.0143 197.684 86.9023 197.607C86.6433 197.446 86.0623 197.376 85.1033 197.376C84.1443 197.376 83.5633 197.446 83.3043 197.607C83.1923 197.684 83.1433 197.782 83.1433 197.894ZM82.2753 199.945V199.469H87.9173V199.945H82.2753ZM83.2623 202.171V202.801H87.6443V203.256H82.7023V201.709H86.9303V201.072H82.7023V200.617H87.4903V202.171H83.2623ZM90.9831 197.971V197.481H93.1391V196.683H93.7061V197.481H95.8761V197.971H93.7061C93.7551 199.028 94.8331 199.658 95.9321 199.84V200.344C94.7981 200.155 93.8671 199.658 93.4261 198.902C92.9921 199.658 92.0261 200.155 90.9061 200.344V199.84C91.9841 199.665 93.0831 199.028 93.1391 197.971H90.9831ZM90.6471 201.576V201.086H96.2191V201.576H93.7061V203.291H93.1391V201.576H90.6471ZM99.7678 198.356V197.523H97.3318V197.033H100.328V198.3C100.328 200.694 99.3758 202.241 97.2898 202.794V202.269C98.9628 201.779 99.7678 200.428 99.7678 198.356ZM102.204 196.921V199.553H103.226V200.043H102.204V203.186H101.644V196.921H102.204ZM103.716 198.181V197.691H104.787V196.725H105.354V197.691H106.39V198.181H103.716ZM104.395 200.827C104.395 201.583 104.507 202.031 104.717 202.241C104.815 202.346 104.934 202.395 105.074 202.395C105.214 202.395 105.34 202.346 105.431 202.241C105.641 202.031 105.753 201.583 105.753 200.827C105.753 200.071 105.641 199.623 105.431 199.413C105.34 199.308 105.214 199.266 105.074 199.266C104.934 199.266 104.815 199.308 104.717 199.413C104.507 199.623 104.395 200.071 104.395 200.827ZM103.856 200.827C103.856 199.917 104.031 199.301 104.409 199C104.591 198.86 104.815 198.783 105.074 198.783C105.34 198.783 105.564 198.86 105.739 199C106.117 199.301 106.299 199.917 106.299 200.827C106.299 201.744 106.117 202.353 105.739 202.654C105.564 202.801 105.34 202.864 105.074 202.864C104.815 202.864 104.591 202.801 104.409 202.654C104.031 202.353 103.856 201.744 103.856 200.827ZM108.959 203.186H108.42V199.994H107.58V203.116H107.048V196.956H107.58V199.504H108.42V196.921H108.959V203.186ZM111.072 198.349H114.845V197.033H115.405V200.785H113.256V202.416H115.748V202.906H110.176V202.416H112.689V200.785H110.512V197.033H111.072V198.349ZM114.845 200.288V198.846H111.072V200.288H114.845ZM117.953 201.198C117.75 201.821 117.239 202.409 116.546 202.745V202.227C117.19 201.842 117.673 201.163 117.673 199.749V196.991H118.226V199.749C118.226 201.17 118.716 201.835 119.367 202.234V202.752C118.681 202.409 118.17 201.821 117.953 201.198ZM120.564 203.116H120.018V199.77H118.947V199.287H120.018V196.956H120.564V203.116ZM121.978 203.186H121.432V196.921H121.978V203.186ZM123.392 198.811C123.392 198.258 123.609 197.824 123.987 197.509C124.449 197.145 125.135 196.963 125.982 196.963C126.836 196.963 127.522 197.145 127.977 197.509C128.355 197.824 128.572 198.258 128.572 198.811C128.572 199.371 128.355 199.805 127.977 200.106C127.83 200.225 127.655 200.33 127.459 200.414V202.416H128.768V202.906H123.196V202.416H124.547V200.428C124.337 200.344 124.148 200.239 123.987 200.106C123.609 199.805 123.392 199.371 123.392 198.811ZM126.899 200.582C126.619 200.638 126.311 200.666 125.982 200.666C125.667 200.666 125.366 200.638 125.1 200.589V202.416H126.899V200.582ZM123.952 198.811C123.952 199.203 124.113 199.511 124.386 199.735C124.736 200.029 125.296 200.169 125.982 200.169C126.668 200.169 127.235 200.029 127.585 199.735C127.865 199.511 128.012 199.203 128.012 198.811C128.012 198.426 127.865 198.118 127.585 197.887C127.235 197.593 126.668 197.46 125.982 197.46C125.296 197.46 124.736 197.593 124.386 197.887C124.113 198.118 123.952 198.426 123.952 198.811ZM130.489 198.279L130.433 201.247H129.957L129.894 198.279V197.32H130.489V198.279ZM130.503 202.052V202.808H129.887V202.052H130.503Z" fill="#A0A0A0"/>
<rect x="62.313" y="58.9097" width="38.5207" height="26.0563" rx="3" fill="#AEAEAE"/>
<path d="M40.2134 38.8925C41.1311 38.8874 43.0888 38.5175 43.0888 38.5175C43.0888 38.5175 41.2055 38.1692 40.2092 38.1748C40.0116 38.1759 39.6517 38.2172 39.6537 38.5369C39.6553 38.835 40.0158 38.8936 40.2134 38.8925Z" fill="#CFCFCF"/>
<path d="M45.8917 38.1428C44.974 38.1478 43.0163 38.5178 43.0163 38.5178C43.0163 38.5178 44.8995 38.8661 45.8959 38.8605C46.0935 38.8597 46.4531 38.8181 46.4514 38.4987C46.4497 38.2006 46.0893 38.1419 45.8917 38.143L45.8917 38.1428Z" fill="#CFCFCF"/>
<path d="M43.4263 41.355C43.4213 40.4346 43.0524 38.4712 43.0524 38.4712C43.0524 38.4712 42.7051 40.36 42.7107 41.3592C42.7118 41.5574 42.7529 41.9184 43.0717 41.9164C43.3689 41.9147 43.4274 41.5532 43.4263 41.355Z" fill="#CFCFCF"/>
<path d="M42.6791 35.6805C42.6841 36.6009 43.053 38.5644 43.053 38.5644C43.053 38.5644 43.4003 36.6756 43.3947 35.6763C43.3936 35.4782 43.3524 35.1175 43.0336 35.1191C42.7364 35.1208 42.6779 35.4824 42.6791 35.6805Z" fill="#CFCFCF"/>
<path d="M128.584 32.0956C129.502 32.0906 131.46 31.7206 131.46 31.7206C131.46 31.7206 129.577 31.3723 128.58 31.3779C128.383 31.379 128.023 31.4203 128.025 31.74C128.026 32.0381 128.387 32.0968 128.584 32.0956Z" fill="#CFCFCF"/>
<path d="M134.263 31.3459C133.345 31.3509 131.387 31.7209 131.387 31.7209C131.387 31.7209 133.271 32.0692 134.267 32.0636C134.465 32.0628 134.824 32.0212 134.823 31.7018C134.821 31.4037 134.46 31.3451 134.263 31.3462L134.263 31.3459Z" fill="#CFCFCF"/>
<path d="M131.797 34.5582C131.792 33.6378 131.423 31.6743 131.423 31.6743C131.423 31.6743 131.076 33.5631 131.082 34.5624C131.083 34.7605 131.124 35.1215 131.443 35.1195C131.74 35.1179 131.799 34.7563 131.797 34.5582Z" fill="#CFCFCF"/>
<path d="M131.05 28.8837C131.055 29.8041 131.424 31.7675 131.424 31.7675C131.424 31.7675 131.771 29.8787 131.766 28.8794C131.765 28.6813 131.724 28.3206 131.405 28.3223C131.108 28.324 131.049 28.6855 131.05 28.8837Z" fill="#CFCFCF"/>
<path d="M40.2134 134.055C41.1311 134.05 43.0888 133.68 43.0888 133.68C43.0888 133.68 41.2055 133.331 40.2092 133.337C40.0116 133.338 39.6517 133.379 39.6537 133.699C39.6553 133.997 40.0158 134.056 40.2134 134.055Z" fill="#CFCFCF"/>
<path d="M45.8917 133.305C44.974 133.31 43.0163 133.68 43.0163 133.68C43.0163 133.68 44.8995 134.028 45.8959 134.023C46.0935 134.022 46.4531 133.98 46.4514 133.661C46.4497 133.363 46.0893 133.304 45.8917 133.305L45.8917 133.305Z" fill="#CFCFCF"/>
<path d="M43.4263 136.517C43.4213 135.597 43.0524 133.633 43.0524 133.633C43.0524 133.633 42.7051 135.522 42.7107 136.521C42.7118 136.72 42.7529 137.08 43.0717 137.079C43.3689 137.077 43.4274 136.715 43.4263 136.517Z" fill="#CFCFCF"/>
<path d="M42.6791 130.843C42.6841 131.763 43.053 133.726 43.053 133.726C43.053 133.726 43.4003 131.838 43.3947 130.838C43.3936 130.64 43.3524 130.28 43.0336 130.281C42.7364 130.283 42.6779 130.644 42.6791 130.843Z" fill="#CFCFCF"/>
<path d="M158.042 68.3476C158.959 68.3425 160.917 67.9726 160.917 67.9726C160.917 67.9726 159.034 67.6242 158.037 67.6298C157.84 67.631 157.48 67.6722 157.482 67.9919C157.483 68.29 157.844 68.3487 158.042 68.3476Z" fill="#CFCFCF"/>
<path d="M163.72 67.5978C162.802 67.6029 160.844 67.9729 160.844 67.9729C160.844 67.9729 162.728 68.3212 163.724 68.3156C163.922 68.3147 164.281 68.2732 164.28 67.9538C164.278 67.6557 163.917 67.597 163.72 67.5981L163.72 67.5978Z" fill="#CFCFCF"/>
<path d="M161.254 70.8101C161.249 69.8897 160.881 67.9263 160.881 67.9263C160.881 67.9263 160.533 69.8151 160.539 70.8143C160.54 71.0125 160.581 71.3735 160.9 71.3715C161.197 71.3698 161.256 71.0083 161.254 70.8101Z" fill="#CFCFCF"/>
<path d="M160.507 65.1356C160.512 66.056 160.881 68.0195 160.881 68.0195C160.881 68.0195 161.228 66.1307 161.223 65.1314C161.222 64.9332 161.181 64.5725 160.862 64.5742C160.565 64.5759 160.506 64.9374 160.507 65.1356Z" fill="#CFCFCF"/>
<path d="M69.1106 77.9794L74.4348 69.5198C74.4872 69.3962 74.576 69.2906 74.6901 69.2162C74.8041 69.1419 74.9382 69.1022 75.0754 69.1022C75.2126 69.1022 75.3467 69.1419 75.4607 69.2162C75.5748 69.2906 75.6636 69.3962 75.716 69.5198L78.7352 74.3151C78.7864 74.4391 78.8746 74.5453 78.9883 74.6201C79.1019 74.6949 79.236 74.7349 79.3731 74.7349C79.5103 74.7349 79.6443 74.6949 79.758 74.6201C79.8717 74.5453 79.9598 74.4391 80.0111 74.3151L85.1778 66.1268C85.2291 66.0028 85.3172 65.8966 85.4309 65.8218C85.5446 65.747 85.6786 65.707 85.8158 65.707C85.9529 65.707 86.0869 65.747 86.2006 65.8218C86.3143 65.8966 86.4024 66.0028 86.4537 66.1268L94.0357 78.1687L69.1106 77.9794Z" stroke="white" stroke-linecap="round" stroke-linejoin="round"/>
<path d="M79.8738 67.9729C80.8123 67.9729 81.5732 67.212 81.5732 66.2735C81.5732 65.335 80.8123 64.5742 79.8738 64.5742C78.9352 64.5742 78.1743 65.335 78.1743 66.2735C78.1743 67.212 78.9352 67.9729 79.8738 67.9729Z" stroke="white" stroke-linecap="round" stroke-linejoin="round"/>
<line x1="108.131" y1="62.9414" x2="142.253" y2="62.9414" stroke="#E8E8E8" stroke-linecap="round"/>
<line x1="108.131" y1="70.8716" x2="142.253" y2="70.8716" stroke="#E8E8E8" stroke-linecap="round"/>
<path d="M153.925 104.225H103.28C101.309 104.225 99.7119 105.635 99.7119 107.374V116.936C99.7119 118.676 101.309 120.085 103.28 120.085H153.925C155.895 120.085 157.493 118.676 157.493 116.936V107.374C157.493 105.635 155.895 104.225 153.925 104.225Z" fill="white" stroke="#DDDDDD" stroke-linecap="round" stroke-linejoin="round"/>
<path d="M121.793 114.2C122.732 114.2 123.493 113.439 123.493 112.5C123.493 111.562 122.732 110.801 121.793 110.801C120.855 110.801 120.094 111.562 120.094 112.5C120.094 113.439 120.855 114.2 121.793 114.2Z" fill="#D2D2D2"/>
<path d="M130.25 114.2C131.189 114.2 131.949 113.439 131.949 112.5C131.949 111.562 131.189 110.801 130.25 110.801C129.311 110.801 128.551 111.562 128.551 112.5C128.551 113.439 129.311 114.2 130.25 114.2Z" fill="#D2D2D2"/>
<path d="M138.699 114.2C139.637 114.2 140.398 113.439 140.398 112.5C140.398 111.562 139.637 110.801 138.699 110.801C137.76 110.801 136.999 111.562 136.999 112.5C136.999 113.439 137.76 114.2 138.699 114.2Z" fill="#D2D2D2"/>
<mask id="mask0_4055_241" style="mask-type:alpha" maskUnits="userSpaceOnUse" x="137" y="99" width="23" height="24">
<rect x="137.088" y="99.8262" width="22.6592" height="22.6576" fill="#D2D2D2"/>
</mask>
<g mask="url(#mask0_4055_241)">
<path d="M148.418 113.738L150.212 115.532C150.385 115.705 150.605 115.792 150.873 115.792C151.14 115.792 151.361 115.705 151.534 115.532C151.707 115.359 151.793 115.139 151.793 114.871C151.793 114.604 151.707 114.383 151.534 114.21L149.74 112.416L151.534 110.622C151.707 110.449 151.793 110.229 151.793 109.962C151.793 109.694 151.707 109.474 151.534 109.301C151.361 109.128 151.14 109.041 150.873 109.041C150.605 109.041 150.385 109.128 150.212 109.301L148.418 111.095L146.624 109.301C146.451 109.128 146.231 109.041 145.963 109.041C145.696 109.041 145.475 109.128 145.302 109.301C145.129 109.474 145.043 109.694 145.043 109.962C145.043 110.229 145.129 110.449 145.302 110.622L147.096 112.416L145.302 114.21C145.129 114.383 145.043 114.604 145.043 114.871C145.043 115.139 145.129 115.359 145.302 115.532C145.475 115.705 145.696 115.792 145.963 115.792C146.231 115.792 146.451 115.705 146.624 115.532L148.418 113.738Z" fill="#D2D2D2"/>
</g>
</g>
<defs>
<clipPath id="clip0_4055_241">
<rect width="193" height="244" fill="white"/>
</clipPath>
</defs>
</svg>
