<svg width="171" height="216" viewBox="0 0 171 216" fill="none" xmlns="http://www.w3.org/2000/svg">
<g clip-path="url(#clip0_4055_241)">
<path d="M169.88 0.47998H0.47998V214.91H169.88V0.47998Z" fill="white" stroke="#BABABA" stroke-width="0.95" stroke-miterlimit="10"/>
<path d="M108.621 70.0107C98.9693 70.0107 89.1442 69.6201 79.9534 67.0695C70.9355 64.5764 62.6557 59.7395 55.2754 54.1443C50.4436 50.5023 46.0499 47.6071 39.7767 48.0437C33.6383 48.3689 27.7678 50.6528 23.0325 54.558C15.0525 61.5203 16.2518 74.411 19.4461 83.4529C24.2433 97.0904 38.8426 106.58 51.2508 112.738C65.5848 119.873 81.3372 124.009 97.1242 126.399C110.962 128.49 128.744 130.018 140.737 121.011C151.75 112.738 154.772 93.8505 152.073 81.0976C151.419 77.3268 149.406 73.9236 146.411 71.5273C138.673 65.8976 127.13 69.6545 118.435 69.8499C115.206 69.9188 111.919 69.9877 108.621 70.0107Z" fill="#F5F5F5"/>
<path d="M85.18 140.7C105.454 140.7 121.89 139.675 121.89 138.41C121.89 137.145 105.454 136.12 85.18 136.12C64.9056 136.12 48.47 137.145 48.47 138.41C48.47 139.675 64.9056 140.7 85.18 140.7Z" fill="#F5F5F5"/>
<path d="M130.99 40.98C131.531 40.98 131.97 40.5413 131.97 40C131.97 39.4588 131.531 39.02 130.99 39.02C130.449 39.02 130.01 39.4588 130.01 40C130.01 40.5413 130.449 40.98 130.99 40.98Z" fill="#CFCFCF"/>
<path d="M65.8001 32.7701C66.3413 32.7701 66.7801 32.3313 66.7801 31.7901C66.7801 31.2488 66.3413 30.8101 65.8001 30.8101C65.2588 30.8101 64.8201 31.2488 64.8201 31.7901C64.8201 32.3313 65.2588 32.7701 65.8001 32.7701Z" fill="#CFCFCF"/>
<path d="M76.98 127.96C77.5212 127.96 77.96 127.521 77.96 126.98C77.96 126.439 77.5212 126 76.98 126C76.4388 126 76 126.439 76 126.98C76 127.521 76.4388 127.96 76.98 127.96Z" fill="#CFCFCF"/>
<path d="M125.84 62.03V66.33" stroke="#BABABA" stroke-linecap="round" stroke-linejoin="round"/>
<path d="M123.69 64.1799H127.99" stroke="#BABABA" stroke-linecap="round" stroke-linejoin="round"/>
<path d="M103.628 34.9466L42.208 43.0117C38.2271 43.5345 35.3224 46.4132 35.72 49.4416L42.8417 103.676C43.2393 106.704 46.7889 108.735 50.7697 108.212L112.189 100.147C116.17 99.6246 119.075 96.7458 118.677 93.7175L111.556 39.4834C111.158 36.455 107.608 34.4238 103.628 34.9466Z" fill="#D2D2D2"/>
<path d="M124.921 46H56.0791C51.6171 46 48 48.6733 48 51.971V111.029C48 114.327 51.6171 117 56.0791 117H124.921C129.383 117 133 114.327 133 111.029V51.971C133 48.6733 129.383 46 124.921 46Z" fill="white" stroke="#DDDDDD" stroke-linecap="round" stroke-linejoin="round"/>
<path d="M49.2184 160.52C48.6084 161.54 47.2284 162.32 45.3484 162.61V161.65C47.3484 161.28 48.6684 160.27 48.6684 158.51V158.13H49.7484V158.51C49.7484 160.27 51.0884 161.27 53.0884 161.65V162.61C51.2184 162.32 49.8284 161.54 49.2184 160.52ZM45.1984 164.85V163.89H53.2484V164.85H49.7484V167.29H48.6684V164.85H45.1984ZM54.738 159.12V158.18H59.418V159.12H57.618V159.29C57.618 160.83 58.458 161.55 59.588 161.81V162.77C58.498 162.58 57.568 162.01 57.098 161.24C56.648 162.03 55.678 162.68 54.578 162.88V161.91C55.728 161.67 56.538 160.85 56.538 159.29V159.12H54.738ZM62.068 162.83H60.978V158.07H62.068V162.83ZM60.978 164.4V163.34H62.068V167.23H55.288V163.34H56.378V164.4H60.978ZM60.978 165.33H56.378V166.31H60.978V165.33ZM71.3176 158.18V160.93H64.3376V158.18H71.3176ZM65.4176 160.05H70.2276V159.07H65.4176V160.05ZM63.7376 162.49V161.57H71.9076V162.49H68.3476V163.27H71.3176V165.69H65.4176V166.35H71.5176V167.23H64.3376V164.82H70.2276V164.15H64.3376V163.27H67.2776V162.49H63.7376ZM76.9072 162.36C76.9072 160.92 76.8072 159.87 76.4272 159.39C76.2472 159.14 75.9672 159.01 75.6372 159.01C75.3172 159.01 75.0372 159.14 74.8472 159.39C74.4872 159.87 74.3772 160.92 74.3772 162.36C74.3772 163.8 74.4872 164.85 74.8472 165.34C75.0372 165.57 75.3172 165.7 75.6372 165.7C75.9672 165.7 76.2472 165.57 76.4272 165.34C76.8072 164.85 76.9072 163.8 76.9072 162.36ZM73.2972 162.36C73.2972 160.72 73.4572 159.49 74.0372 158.78C74.4072 158.32 74.9672 158.07 75.6372 158.07C76.3172 158.07 76.8672 158.32 77.2472 158.78C77.8272 159.49 77.9872 160.72 77.9872 162.36C77.9872 164 77.8272 165.23 77.2472 165.94C76.8672 166.4 76.3172 166.63 75.6372 166.63C74.9672 166.63 74.4072 166.4 74.0372 165.94C73.4572 165.23 73.2972 164 73.2972 162.36ZM80.6472 158.07V167.14H79.5572V158.07H80.6472ZM85.127 160.35C85.127 159.53 85.437 158.91 85.937 158.51C86.347 158.19 86.887 158.01 87.507 158.01C88.137 158.01 88.677 158.19 89.077 158.51C89.487 158.83 89.757 159.29 89.847 159.88H91.487V158.07H92.577V162.86H91.487V160.81H89.857C89.767 161.41 89.487 161.88 89.077 162.19C88.677 162.52 88.137 162.7 87.507 162.7C86.887 162.7 86.347 162.52 85.937 162.19C85.437 161.8 85.127 161.18 85.127 160.35ZM86.187 160.35C86.187 160.82 86.347 161.21 86.627 161.44C86.847 161.65 87.157 161.76 87.507 161.76C87.857 161.76 88.167 161.65 88.397 161.44C88.677 161.21 88.827 160.82 88.827 160.35C88.827 159.88 88.677 159.51 88.397 159.26C88.167 159.06 87.857 158.95 87.507 158.95C87.157 158.95 86.847 159.06 86.627 159.26C86.347 159.51 86.187 159.88 86.187 160.35ZM88.057 164.43V163.34H89.057V167.23H85.687V163.34H86.697V164.43H88.057ZM88.057 165.31H86.697V166.34H88.057V165.31ZM90.617 163.34H91.687V164.23C91.687 165.4 92.137 166 92.887 166.33V167.27C92.187 167.11 91.497 166.64 91.167 166.1C90.837 166.64 90.137 167.12 89.447 167.27V166.33C90.207 166.01 90.617 165.4 90.617 164.23V163.34ZM98.3166 159.89C97.5766 160.7 96.0766 161.33 94.5066 161.45V160.51C96.1266 160.33 97.7766 159.59 97.7766 158.32V158.13H98.8566V158.32C98.8566 159.59 100.457 160.3 102.147 160.51V161.45C100.527 161.31 99.0966 160.7 98.3166 159.89ZM94.2466 162.97V162.05H102.417V162.97H94.2466ZM94.8466 163.65H95.9266V164.51H100.737V163.65H101.827V167.23H94.8466V163.65ZM100.737 166.32V165.43H95.9266V166.32H100.737ZM107.936 166.53H103.916V158.18H104.996V165.58H108.136C108.986 165.58 109.666 165.39 110.066 165.04V158.07H111.156V167.14H110.066V165.92C109.686 166.31 108.886 166.53 107.936 166.53ZM117.076 166.53H113.146V158.23H117.516V159.19H114.226V165.58H117.276C118.106 165.58 118.766 165.4 119.146 165.06V158.07H120.236V161.77H121.656V162.72H120.236V167.14H119.146V165.96C118.776 166.32 117.996 166.53 117.076 166.53ZM123.595 165.21V166.54H122.355V165.21H123.595Z" fill="#939090"/>
<path d="M54.2077 175.348C53.8227 176.104 52.8917 176.685 51.5337 176.916V176.419C52.9197 176.153 53.9207 175.439 53.9207 174.193V173.871H54.4877V174.193C54.4877 175.432 55.5097 176.146 56.8817 176.419V176.916C55.5377 176.678 54.5997 176.111 54.2077 175.348ZM51.4287 178.456V177.959H57.0007V178.456H54.4877V180.206H53.9207V178.456H51.4287ZM58.1134 173.906H61.2914V174.396H59.9824V174.711C59.9824 175.775 60.6474 176.321 61.4034 176.503V177C60.6474 176.846 60.0034 176.398 59.7164 175.81C59.4364 176.412 58.7854 176.93 58.0084 177.084V176.58C58.7854 176.412 59.4224 175.789 59.4224 174.711V174.396H58.1134V173.906ZM63.1604 177.091H62.6004V173.836H63.1604V177.091ZM62.6004 178.351V177.539H63.1604V180.171H58.5054V177.539H59.0724V178.351H62.6004ZM62.6004 178.834H59.0724V179.688H62.6004V178.834ZM69.6282 175.726H64.8402V173.906H69.6282V175.726ZM69.0682 175.264V174.375H65.4002V175.264H69.0682ZM64.4132 176.825V176.342H70.0552V176.825H67.5072V177.532H69.6282V179.086H65.4002V179.716H69.7822V180.171H64.8402V178.624H69.0682V177.987H64.8402V177.532H66.9472V176.825H64.4132ZM71.2239 174.809C71.2239 174.55 71.3219 174.361 71.5319 174.207C71.9169 173.941 72.6449 173.836 73.7509 173.836C74.8569 173.836 75.5849 173.941 75.9629 174.207C76.1729 174.361 76.2779 174.55 76.2779 174.809C76.2779 175.054 76.1729 175.25 75.9629 175.397C75.5849 175.67 74.8569 175.782 73.7509 175.782C72.6449 175.782 71.9169 175.67 71.5319 175.397C71.3219 175.25 71.2239 175.054 71.2239 174.809ZM71.7909 174.809C71.7909 174.921 71.8399 175.012 71.9519 175.082C72.2109 175.25 72.7919 175.313 73.7509 175.313C74.7099 175.313 75.2909 175.25 75.5499 175.082C75.6619 175.012 75.7109 174.921 75.7109 174.809C75.7109 174.697 75.6619 174.599 75.5499 174.522C75.2909 174.361 74.7099 174.291 73.7509 174.291C72.7919 174.291 72.2109 174.361 71.9519 174.522C71.8399 174.599 71.7909 174.697 71.7909 174.809ZM70.9229 176.86V176.384H76.5649V176.86H70.9229ZM71.9099 179.086V179.716H76.2919V180.171H71.3499V178.624H75.5779V177.987H71.3499V177.532H76.1379V179.086H71.9099ZM79.6307 174.886V174.396H81.7867V173.598H82.3537V174.396H84.5237V174.886H82.3537C82.4027 175.943 83.4807 176.573 84.5797 176.755V177.259C83.4457 177.07 82.5147 176.573 82.0737 175.817C81.6397 176.573 80.6737 177.07 79.5537 177.259V176.755C80.6317 176.58 81.7307 175.943 81.7867 174.886H79.6307ZM79.2947 178.491V178.001H84.8667V178.491H82.3537V180.206H81.7867V178.491H79.2947ZM88.4154 175.271V174.438H85.9794V173.948H88.9754V175.215C88.9754 177.609 88.0234 179.156 85.9374 179.709V179.184C87.6104 178.694 88.4154 177.343 88.4154 175.271ZM90.8514 173.836V176.468H91.8735V176.958H90.8514V180.101H90.2915V173.836H90.8514ZM92.3632 175.096V174.606H93.4342V173.64H94.0012V174.606H95.0372V175.096H92.3632ZM93.0422 177.742C93.0422 178.498 93.1542 178.946 93.3642 179.156C93.4622 179.261 93.5812 179.31 93.7212 179.31C93.8612 179.31 93.9872 179.261 94.0782 179.156C94.2882 178.946 94.4002 178.498 94.4002 177.742C94.4002 176.986 94.2882 176.538 94.0782 176.328C93.9872 176.223 93.8612 176.181 93.7212 176.181C93.5812 176.181 93.4622 176.223 93.3642 176.328C93.1542 176.538 93.0422 176.986 93.0422 177.742ZM92.5032 177.742C92.5032 176.832 92.6782 176.216 93.0562 175.915C93.2382 175.775 93.4622 175.698 93.7212 175.698C93.9872 175.698 94.2112 175.775 94.3862 175.915C94.7642 176.216 94.9462 176.832 94.9462 177.742C94.9462 178.659 94.7642 179.268 94.3862 179.569C94.2112 179.716 93.9872 179.779 93.7212 179.779C93.4622 179.779 93.2382 179.716 93.0562 179.569C92.6782 179.268 92.5032 178.659 92.5032 177.742ZM97.6062 180.101H97.0672V176.909H96.2272V180.031H95.6952V173.871H96.2272V176.419H97.0672V173.836H97.6062V180.101ZM99.7199 175.264H103.493V173.948H104.053V177.7H101.904V179.331H104.396V179.821H98.8239V179.331H101.337V177.7H99.1599V173.948H99.7199V175.264ZM103.493 177.203V175.761H99.7199V177.203H103.493ZM106.601 178.113C106.398 178.736 105.887 179.324 105.194 179.66V179.142C105.838 178.757 106.321 178.078 106.321 176.664V173.906H106.874V176.664C106.874 178.085 107.364 178.75 108.015 179.149V179.667C107.329 179.324 106.818 178.736 106.601 178.113ZM109.212 180.031H108.666V176.685H107.595V176.202H108.666V173.871H109.212V180.031ZM110.626 180.101H110.08V173.836H110.626V180.101ZM112.039 175.726C112.039 175.173 112.256 174.739 112.634 174.424C113.096 174.06 113.782 173.878 114.629 173.878C115.483 173.878 116.169 174.06 116.624 174.424C117.002 174.739 117.219 175.173 117.219 175.726C117.219 176.286 117.002 176.72 116.624 177.021C116.477 177.14 116.302 177.245 116.106 177.329V179.331H117.415V179.821H111.843V179.331H113.194V177.343C112.984 177.259 112.795 177.154 112.634 177.021C112.256 176.72 112.039 176.286 112.039 175.726ZM115.546 177.497C115.266 177.553 114.958 177.581 114.629 177.581C114.314 177.581 114.013 177.553 113.747 177.504V179.331H115.546V177.497ZM112.599 175.726C112.599 176.118 112.76 176.426 113.033 176.65C113.383 176.944 113.943 177.084 114.629 177.084C115.315 177.084 115.882 176.944 116.232 176.65C116.512 176.426 116.659 176.118 116.659 175.726C116.659 175.341 116.512 175.033 116.232 174.802C115.882 174.508 115.315 174.375 114.629 174.375C113.943 174.375 113.383 174.508 113.033 174.802C112.76 175.033 112.599 175.341 112.599 175.726ZM119.137 175.194L119.081 178.162H118.605L118.542 175.194V174.235H119.137V175.194ZM119.151 178.967V179.723H118.535V178.967H119.151Z" fill="#A0A0A0"/>
<rect x="55" y="52" width="34" height="23" rx="3" fill="#AEAEAE"/>
<path d="M35.4941 34.3308C36.3041 34.3263 38.032 33.9997 38.032 33.9997C38.032 33.9997 36.3698 33.6923 35.4904 33.6972C35.316 33.6982 34.9983 33.7346 35 34.0168C35.0015 34.28 35.3197 34.3318 35.4941 34.3308Z" fill="#CFCFCF"/>
<path d="M40.5059 33.669C39.696 33.6734 37.968 34 37.968 34C37.968 34 39.6302 34.3075 40.5097 34.3025C40.6841 34.3018 41.0015 34.2651 41 33.9831C40.9985 33.72 40.6803 33.6682 40.5059 33.6692L40.5059 33.669Z" fill="#CFCFCF"/>
<path d="M38.3299 36.5045C38.3255 35.692 37.9999 33.9589 37.9999 33.9589C37.9999 33.9589 37.6933 35.6261 37.6983 36.5082C37.6992 36.6831 37.7356 37.0017 38.0169 37C38.2793 36.9985 38.3309 36.6794 38.3299 36.5045Z" fill="#CFCFCF"/>
<path d="M37.6703 31.4955C37.6748 32.308 38.0004 34.0411 38.0004 34.0411C38.0004 34.0411 38.3069 32.3739 38.302 31.4918C38.301 31.3169 38.2647 30.9985 37.9833 31C37.721 31.0015 37.6694 31.3206 37.6703 31.4955Z" fill="#CFCFCF"/>
<path d="M113.494 28.3308C114.304 28.3263 116.032 27.9997 116.032 27.9997C116.032 27.9997 114.37 27.6923 113.49 27.6972C113.316 27.6982 112.998 27.7346 113 28.0168C113.001 28.28 113.32 28.3318 113.494 28.3308Z" fill="#CFCFCF"/>
<path d="M118.506 27.669C117.696 27.6734 115.968 28 115.968 28C115.968 28 117.63 28.3075 118.51 28.3025C118.684 28.3018 119.001 28.2651 119 27.9831C118.999 27.72 118.68 27.6682 118.506 27.6692L118.506 27.669Z" fill="#CFCFCF"/>
<path d="M116.33 30.5045C116.325 29.692 116 27.9589 116 27.9589C116 27.9589 115.693 29.6261 115.698 30.5082C115.699 30.6831 115.736 31.0017 116.017 31C116.279 30.9985 116.331 30.6794 116.33 30.5045Z" fill="#CFCFCF"/>
<path d="M115.67 25.4955C115.675 26.308 116 28.0411 116 28.0411C116 28.0411 116.307 26.3739 116.302 25.4918C116.301 25.3169 116.265 24.9985 115.983 25C115.721 25.0015 115.669 25.3206 115.67 25.4955Z" fill="#CFCFCF"/>
<path d="M35.4941 118.331C36.3041 118.326 38.032 118 38.032 118C38.032 118 36.3698 117.692 35.4904 117.697C35.316 117.698 34.9983 117.735 35 118.017C35.0015 118.28 35.3197 118.332 35.4941 118.331Z" fill="#CFCFCF"/>
<path d="M40.5059 117.669C39.696 117.673 37.968 118 37.968 118C37.968 118 39.6302 118.307 40.5097 118.303C40.6841 118.302 41.0015 118.265 41 117.983C40.9985 117.72 40.6803 117.668 40.5059 117.669L40.5059 117.669Z" fill="#CFCFCF"/>
<path d="M38.3299 120.504C38.3255 119.692 37.9999 117.959 37.9999 117.959C37.9999 117.959 37.6933 119.626 37.6983 120.508C37.6992 120.683 37.7356 121.002 38.0169 121C38.2793 120.999 38.3309 120.679 38.3299 120.504Z" fill="#CFCFCF"/>
<path d="M37.6703 115.496C37.6748 116.308 38.0004 118.041 38.0004 118.041C38.0004 118.041 38.3069 116.374 38.302 115.492C38.301 115.317 38.2647 114.999 37.9833 115C37.721 115.001 37.6694 115.321 37.6703 115.496Z" fill="#CFCFCF"/>
<path d="M139.494 60.3308C140.304 60.3263 142.032 59.9997 142.032 59.9997C142.032 59.9997 140.37 59.6923 139.49 59.6972C139.316 59.6982 138.998 59.7346 139 60.0168C139.001 60.28 139.32 60.3318 139.494 60.3308Z" fill="#CFCFCF"/>
<path d="M144.506 59.669C143.696 59.6734 141.968 60 141.968 60C141.968 60 143.63 60.3075 144.51 60.3025C144.684 60.3018 145.001 60.2651 145 59.9831C144.999 59.72 144.68 59.6682 144.506 59.6692L144.506 59.669Z" fill="#CFCFCF"/>
<path d="M142.33 62.5045C142.325 61.692 142 59.9589 142 59.9589C142 59.9589 141.693 61.6261 141.698 62.5082C141.699 62.6831 141.736 63.0017 142.017 63C142.279 62.9985 142.331 62.6794 142.33 62.5045Z" fill="#CFCFCF"/>
<path d="M141.67 57.4955C141.675 58.308 142 60.0411 142 60.0411C142 60.0411 142.307 58.3739 142.302 57.4918C142.301 57.3169 142.265 56.9985 141.983 57C141.721 57.0015 141.669 57.3206 141.67 57.4955Z" fill="#CFCFCF"/>
<path d="M61 68.8329L65.6994 61.3656C65.7456 61.2565 65.824 61.1632 65.9247 61.0976C66.0253 61.032 66.1437 60.9969 66.2648 60.9969C66.3859 60.9969 66.5043 61.032 66.6049 61.0976C66.7056 61.1632 66.784 61.2565 66.8302 61.3656L69.495 65.5984C69.5403 65.7078 69.6181 65.8016 69.7184 65.8676C69.8188 65.9336 69.9371 65.9689 70.0581 65.9689C70.1792 65.9689 70.2975 65.9336 70.3978 65.8676C70.4982 65.8016 70.576 65.7078 70.6212 65.5984L75.1816 58.3705C75.2269 58.2611 75.3046 58.1673 75.405 58.1013C75.5053 58.0353 75.6236 58 75.7447 58C75.8657 58 75.984 58.0353 76.0844 58.1013C76.1847 58.1673 76.2625 58.2611 76.3078 58.3705L83 69L61 68.8329Z" stroke="white" stroke-linecap="round" stroke-linejoin="round"/>
<path d="M70.5 60C71.3284 60 72 59.3284 72 58.5C72 57.6716 71.3284 57 70.5 57C69.6716 57 69 57.6716 69 58.5C69 59.3284 69.6716 60 70.5 60Z" stroke="white" stroke-linecap="round" stroke-linejoin="round"/>
<line x1="95.5" y1="55.5" x2="125.5" y2="55.5" stroke="#E8E8E8" stroke-linecap="round"/>
<line x1="95.5" y1="62.5" x2="125.5" y2="62.5" stroke="#E8E8E8" stroke-linecap="round"/>
<path d="M135.861 92H91.1595C89.4201 92 88.01 93.2445 88.01 94.7797V103.22C88.01 104.755 89.4201 106 91.1595 106H135.861C137.6 106 139.01 104.755 139.01 103.22V94.7797C139.01 93.2445 137.6 92 135.861 92Z" fill="white" stroke="#DDDDDD" stroke-linecap="round" stroke-linejoin="round"/>
<path d="M107.5 101C108.328 101 109 100.328 109 99.5C109 98.6716 108.328 98 107.5 98C106.672 98 106 98.6716 106 99.5C106 100.328 106.672 101 107.5 101Z" fill="#D2D2D2"/>
<path d="M114.964 101C115.793 101 116.464 100.328 116.464 99.5C116.464 98.6716 115.793 98 114.964 98C114.136 98 113.464 98.6716 113.464 99.5C113.464 100.328 114.136 101 114.964 101Z" fill="#D2D2D2"/>
<path d="M122.421 101C123.25 101 123.921 100.328 123.921 99.5C123.921 98.6716 123.25 98 122.421 98C121.593 98 120.921 98.6716 120.921 99.5C120.921 100.328 121.593 101 122.421 101Z" fill="#D2D2D2"/>
<mask id="mask0_4055_241" style="mask-type:alpha" maskUnits="userSpaceOnUse" x="121" y="89" width="20" height="20">
<rect x="121" y="89" width="20" height="20" fill="#D2D2D2"/>
</mask>
<g mask="url(#mask0_4055_241)">
<path d="M131 100.583L132.583 102.167C132.736 102.319 132.931 102.396 133.167 102.396C133.403 102.396 133.597 102.319 133.75 102.167C133.903 102.014 133.979 101.819 133.979 101.583C133.979 101.347 133.903 101.153 133.75 101L132.167 99.4167L133.75 97.8333C133.903 97.6806 133.979 97.4861 133.979 97.25C133.979 97.0139 133.903 96.8194 133.75 96.6667C133.597 96.5139 133.403 96.4375 133.167 96.4375C132.931 96.4375 132.736 96.5139 132.583 96.6667L131 98.25L129.417 96.6667C129.264 96.5139 129.07 96.4375 128.833 96.4375C128.597 96.4375 128.403 96.5139 128.25 96.6667C128.097 96.8194 128.021 97.0139 128.021 97.25C128.021 97.4861 128.097 97.6806 128.25 97.8333L129.833 99.4167L128.25 101C128.097 101.153 128.021 101.347 128.021 101.583C128.021 101.819 128.097 102.014 128.25 102.167C128.403 102.319 128.597 102.396 128.833 102.396C129.07 102.396 129.264 102.319 129.417 102.167L131 100.583Z" fill="#D2D2D2"/>
</g>
</g>
<defs>
<clipPath id="clip0_4055_241">
<rect width="170.35" height="215.38" fill="white"/>
</clipPath>
</defs>
</svg>
