<svg width="193" height="244" viewBox="0 0 193 244" fill="none" xmlns="http://www.w3.org/2000/svg">
<g clip-path="url(#clip0_4055_285)">
<path d="M192.467 0.543945H0.543701V243.468H192.467V0.543945Z" fill="white"/>
<path d="M96.5056 122.158C97.1188 122.158 97.6159 121.661 97.6159 121.048C97.6159 120.435 97.1188 119.938 96.5056 119.938C95.8924 119.938 95.3953 120.435 95.3953 121.048C95.3953 121.661 95.8924 122.158 96.5056 122.158Z" fill="#CFCFCF"/>
<path d="M126.391 70.9685C116.179 70.9685 105.785 70.5537 96.0608 67.845C86.5201 65.1973 77.7601 60.0605 69.9518 54.1184C64.8398 50.2506 60.1915 47.1636 53.5544 47.6273C47.0614 47.9786 40.8523 50.4035 35.8393 54.5455C27.3966 61.9395 28.6655 75.6417 32.045 85.232C37.1204 99.715 52.5662 109.806 65.6939 116.333C80.8591 123.91 97.5249 128.315 114.227 130.841C128.868 133.074 147.681 134.684 160.369 125.13C172.021 116.333 175.217 96.2742 172.363 82.7307C171.67 78.7297 169.54 75.1195 166.372 72.5791C158.186 66.5882 145.973 70.5903 136.774 70.7855C133.358 70.8587 129.881 70.9441 126.391 70.9685Z" fill="#F5F5F5"/>
<path d="M104.368 31.9358C104.982 31.9358 105.479 31.4387 105.479 30.8256C105.479 30.2124 104.982 29.7153 104.368 29.7153C103.755 29.7153 103.258 30.2124 103.258 30.8256C103.258 31.4387 103.755 31.9358 104.368 31.9358Z" fill="#CFCFCF"/>
<path d="M151.794 115.509C152.407 115.509 152.904 115.011 152.904 114.398C152.904 113.785 152.407 113.288 151.794 113.288C151.181 113.288 150.684 113.785 150.684 114.398C150.684 115.011 151.181 115.509 151.794 115.509Z" fill="#CFCFCF"/>
<path d="M96.9589 156.995C119.929 156.995 138.55 155.833 138.55 154.4C138.55 152.968 119.929 151.806 96.9589 151.806C73.9889 151.806 55.3679 152.968 55.3679 154.4C55.3679 155.833 73.9889 156.995 96.9589 156.995Z" fill="#F2F2F2"/>
<path d="M135.833 134.623H56.8942C56.366 134.623 55.8441 134.507 55.3646 134.283C54.8852 134.059 54.4597 133.733 54.1176 133.327C53.7755 132.921 53.5248 132.445 53.3831 131.931C53.2413 131.418 53.2118 130.88 53.2965 130.354L63.3926 68.5943C63.529 67.7347 63.9651 66.9525 64.6223 66.3885C65.2796 65.8245 66.1149 65.5156 66.9778 65.5176H145.916C146.444 65.5176 146.966 65.6337 147.445 65.8576C147.924 66.0816 148.348 66.4081 148.69 66.8144C149.031 67.2207 149.28 67.6972 149.42 68.2105C149.561 68.7239 149.588 69.262 149.502 69.7872L139.455 131.547C139.316 132.411 138.873 133.197 138.209 133.762C137.544 134.326 136.701 134.632 135.833 134.623Z" fill="#AEAEAE"/>
<path d="M133.348 70.7702L86.4475 49.8314C85.065 49.2142 83.444 49.8345 82.8267 51.2169L67.9623 84.5067C67.345 85.8891 67.9654 87.51 69.3478 88.1272L116.248 109.066C117.631 109.683 119.252 109.063 119.869 107.681L134.733 74.3907C135.351 73.0084 134.73 71.3874 133.348 70.7702Z" fill="white" stroke="#DDDDDD" stroke-linecap="round" stroke-linejoin="round"/>
<path d="M135.692 134.623H55.7793C54.8069 134.62 53.8755 134.234 53.1891 133.549C52.5027 132.864 52.1173 131.936 52.1173 130.969V74.9242C52.1056 74.438 52.1916 73.9544 52.3702 73.5017C52.5489 73.049 52.8165 72.6362 53.1576 72.2877C53.4987 71.9392 53.9062 71.6619 54.3564 71.4721C54.8066 71.2822 55.2903 71.1836 55.7793 71.1821H84.8876C85.563 71.1846 86.2247 71.3722 86.7999 71.7243C87.3752 72.0763 87.8417 72.5793 88.1483 73.1779L92.2994 81.2609C92.6049 81.8604 93.0712 82.3641 93.6467 82.7164C94.2222 83.0686 94.8844 83.2556 95.5602 83.2567H135.692C136.663 83.2567 137.595 83.6404 138.282 84.3235C138.968 85.0066 139.354 85.933 139.354 86.899V130.969C139.354 131.936 138.969 132.864 138.282 133.549C137.596 134.234 136.665 134.62 135.692 134.623Z" fill="white" stroke="#DDDDDD" stroke-linecap="round" stroke-linejoin="round"/>
<path d="M113.873 91.7632C110.175 91.7613 106.56 92.8227 103.484 94.8133C100.409 96.8038 98.011 99.634 96.5946 102.946C95.1781 106.258 94.8065 109.903 95.5267 113.42C96.2469 116.936 98.0265 120.167 100.64 122.703C103.254 125.239 106.585 126.966 110.212 127.666C113.838 128.367 117.598 128.008 121.014 126.637C124.431 125.265 127.351 122.942 129.405 119.961C131.46 116.98 132.556 113.475 132.556 109.889C132.556 105.084 130.588 100.475 127.085 97.0756C123.581 93.6766 118.829 91.7658 113.873 91.7632Z" fill="white" stroke="#AEAEAE" stroke-linecap="round" stroke-linejoin="round"/>
<path d="M126.892 123.484L131.423 128.015" stroke="#AEAEAE" stroke-linecap="round" stroke-linejoin="round"/>
<path d="M131.181 126.012L129.669 127.594C128.991 128.303 129.129 129.535 129.977 130.345L145.67 145.345C146.518 146.156 147.754 146.238 148.432 145.529L149.944 143.947C150.622 143.238 150.484 142.006 149.637 141.196L133.944 126.196C133.096 125.385 131.859 125.303 131.181 126.012Z" fill="#DDDDDD"/>
<path d="M58.5689 182.576V181.576H55.2489V180.616H59.6489V182.446C59.6489 185.906 58.3289 188.196 55.1989 188.986V187.966C56.8789 187.486 57.8689 186.396 58.3089 184.786C57.9089 184.916 57.2989 184.986 56.5489 184.986H55.1989V184.036H56.5889C57.4289 184.036 58.0989 183.966 58.4989 183.826C58.5489 183.426 58.5689 183.016 58.5689 182.576ZM62.3389 180.456V184.156H63.7589V185.106H62.3389V189.526H61.2489V180.456H62.3389ZM66.7985 188.916H64.5585V180.616H67.8185V181.576H65.6185V184.246H67.5885V185.186H65.6185V187.966H66.8485C67.3785 187.966 67.8785 187.936 68.2685 187.796V188.696C67.8785 188.856 67.3585 188.916 66.7985 188.916ZM70.1085 189.416H69.0485V185.086H67.9885V184.126H69.0485V180.516H70.1085V189.416ZM71.9985 189.526H70.9385V180.456H71.9985V189.526ZM80.0981 183.986V181.576H74.0181V180.616H81.1881V183.766C81.1881 184.796 81.1081 185.906 80.9481 186.696H79.8781C80.0181 185.936 80.0981 184.876 80.0981 183.986ZM73.6081 189.126V188.186H76.3081V183.946H77.3981V188.186H81.6581V189.126H73.6081ZM87.2877 188.916H83.2177V184.246H86.3777V181.576H83.2177V180.616H87.4477V185.196H84.2977V187.966H87.4977C88.3277 187.966 88.9877 187.786 89.3677 187.446V180.456H90.4577V189.526H89.3677V188.346C89.0077 188.706 88.2277 188.916 87.2877 188.916ZM95.7673 182.576V181.576H92.4473V180.616H96.8473V182.446C96.8473 185.906 95.5273 188.196 92.3973 188.996V187.966C94.7273 187.296 95.7673 185.416 95.7673 182.576ZM99.5373 180.456V184.156H100.957V185.106H99.5373V189.526H98.4473V180.456H99.5373ZM104.237 182.736C104.237 181.916 104.547 181.296 105.047 180.896C105.457 180.576 105.997 180.396 106.617 180.396C107.247 180.396 107.787 180.576 108.187 180.896C108.597 181.216 108.867 181.676 108.957 182.266H110.597V180.456H111.687V185.246H110.597V183.196H108.967C108.877 183.796 108.597 184.266 108.187 184.576C107.787 184.906 107.247 185.086 106.617 185.086C105.997 185.086 105.457 184.906 105.047 184.576C104.547 184.186 104.237 183.566 104.237 182.736ZM105.297 182.736C105.297 183.206 105.457 183.596 105.737 183.826C105.957 184.036 106.267 184.146 106.617 184.146C106.967 184.146 107.277 184.036 107.507 183.826C107.787 183.596 107.937 183.206 107.937 182.736C107.937 182.266 107.787 181.896 107.507 181.646C107.277 181.446 106.967 181.336 106.617 181.336C106.267 181.336 105.957 181.446 105.737 181.646C105.457 181.896 105.297 182.266 105.297 182.736ZM107.167 186.816V185.726H108.167V189.616H104.797V185.726H105.807V186.816H107.167ZM107.167 187.696H105.807V188.726H107.167V187.696ZM109.727 185.726H110.797V186.616C110.797 187.786 111.247 188.386 111.997 188.716V189.656C111.297 189.496 110.607 189.026 110.277 188.486C109.947 189.026 109.247 189.506 108.557 189.656V188.716C109.317 188.396 109.727 187.786 109.727 186.616V185.726ZM117.427 182.276C116.687 183.086 115.187 183.716 113.617 183.836V182.896C115.237 182.716 116.887 181.976 116.887 180.706V180.516H117.967V180.706C117.967 181.976 119.567 182.686 121.257 182.896V183.836C119.637 183.696 118.207 183.086 117.427 182.276ZM113.357 185.356V184.436H121.527V185.356H113.357ZM113.957 186.036H115.037V186.896H119.847V186.036H120.937V189.616H113.957V186.036ZM119.847 188.706V187.816H115.037V188.706H119.847ZM127.046 188.916H123.026V180.566H124.106V187.966H127.246C128.096 187.966 128.776 187.776 129.176 187.426V180.456H130.266V189.526H129.176V188.306C128.796 188.696 127.996 188.916 127.046 188.916ZM136.186 188.916H132.256V180.616H136.626V181.576H133.336V187.966H136.386C137.216 187.966 137.876 187.786 138.256 187.446V180.456H139.346V184.156H140.766V185.106H139.346V189.526H138.256V188.346C137.886 188.706 137.106 188.916 136.186 188.916ZM142.706 187.596V188.926H141.466V187.596H142.706Z" fill="#939090"/>
<path d="M32.1207 200.52V199.687H29.6847V199.197H32.6807V200.464C32.6807 202.858 31.7287 204.405 29.6427 204.944V204.433C30.9097 204.062 31.6727 203.208 31.9737 201.934C31.6587 202.046 31.1827 202.102 30.6577 202.102H29.6427V201.605H30.6787C31.2387 201.605 31.7567 201.549 32.0647 201.423C32.0997 201.143 32.1207 200.842 32.1207 200.52ZM34.5567 199.085V201.717H35.5787V202.207H34.5567V205.35H33.9967V199.085H34.5567ZM36.7615 201.78H38.2525V202.263H36.7615V204.426H37.6715C38.0915 204.426 38.4975 204.391 38.7985 204.258V204.727C38.5045 204.867 38.0915 204.909 37.6435 204.909H36.2155V199.197H38.4065V199.687H36.7615V201.78ZM39.9745 205.28H39.4285V202.193H38.5815V201.696H39.4285V199.12H39.9745V205.28ZM41.3115 205.35H40.7655V199.085H41.3115V205.35ZM47.1982 201.437V199.687H42.8302V199.197H47.7582V201.332C47.7582 202.046 47.7022 202.83 47.5902 203.383H47.0372C47.1352 202.844 47.1982 202.088 47.1982 201.437ZM42.5292 205.07V204.58H44.4892V201.535H45.0562V204.58H48.1012V205.07H42.5292ZM52.0559 204.909H49.2699V201.78H51.5659V199.687H49.2699V199.197H52.1189V202.27H49.8229V204.426H52.1539C52.7909 204.426 53.3509 204.258 53.6729 203.957V199.085H54.2399V205.343H53.6729V204.426C53.3649 204.741 52.7559 204.909 52.0559 204.909ZM56.5007 200.534V201.087H60.7707V201.514H55.9407V200.114H60.1687V199.589H55.9407V199.155H60.7287V200.534H56.5007ZM55.5137 202.515V202.06H61.1557V202.515H55.5137ZM56.5007 204.44V205.007H60.8827V205.42H55.9407V204.034H60.1687V203.495H55.9407V203.075H60.7287V204.44H56.5007ZM63.9765 202.48V199.155H66.9795V202.48H63.9765ZM66.4265 199.645H64.5295V202.004H66.4265V199.645ZM68.9325 199.085V200.856H69.8915V201.353H68.9325V203.446H68.3725V199.085H68.9325ZM64.9005 203.327V204.895H69.0515V205.378H64.3405V203.327H64.9005ZM75.5752 199.645H71.3472V200.982H75.6172V201.472H70.7872V199.155H75.5752V199.645ZM70.3602 202.879V202.396H76.0022V202.879H70.3602ZM71.3472 203.607V204.895H75.7012V205.378H70.7872V203.607H71.3472ZM82.1971 199.687H79.6841V201.472H82.2741V201.969H79.1241V199.197H82.1971V199.687ZM80.8741 203.446V205.357H80.3141V203.446H78.7531V202.956H82.0221C82.5821 202.956 83.1001 202.837 83.4431 202.571V199.085H84.0031V205.35H83.4431V203.04C83.1281 203.299 82.5751 203.446 81.8821 203.446H80.8741ZM89.8479 200.597C89.4629 201.353 88.5319 201.934 87.1739 202.165V201.668C88.5599 201.402 89.5609 200.688 89.5609 199.442V199.12H90.1279V199.442C90.1279 200.681 91.1499 201.395 92.5219 201.668V202.165C91.1779 201.927 90.2399 201.36 89.8479 200.597ZM87.0689 203.705V203.208H92.6409V203.705H90.1279V205.455H89.5609V203.705H87.0689ZM93.7536 199.155H96.9316V199.645H95.6226V199.96C95.6226 201.024 96.2876 201.57 97.0436 201.752V202.249C96.2876 202.095 95.6436 201.647 95.3566 201.059C95.0766 201.661 94.4256 202.179 93.6486 202.333V201.829C94.4256 201.661 95.0626 201.038 95.0626 199.96V199.645H93.7536V199.155ZM98.8006 202.34H98.2406V199.085H98.8006V202.34ZM98.2406 203.6V202.788H98.8006V205.42H94.1456V202.788H94.7126V203.6H98.2406ZM98.2406 204.083H94.7126V204.937H98.2406V204.083ZM105.268 200.975H100.48V199.155H105.268V200.975ZM104.708 200.513V199.624H101.04V200.513H104.708ZM100.053 202.074V201.591H105.695V202.074H103.147V202.781H105.268V204.335H101.04V204.965H105.422V205.42H100.48V203.873H104.708V203.236H100.48V202.781H102.587V202.074H100.053ZM106.864 200.058C106.864 199.799 106.962 199.61 107.172 199.456C107.557 199.19 108.285 199.085 109.391 199.085C110.497 199.085 111.225 199.19 111.603 199.456C111.813 199.61 111.918 199.799 111.918 200.058C111.918 200.303 111.813 200.499 111.603 200.646C111.225 200.919 110.497 201.031 109.391 201.031C108.285 201.031 107.557 200.919 107.172 200.646C106.962 200.499 106.864 200.303 106.864 200.058ZM107.431 200.058C107.431 200.17 107.48 200.261 107.592 200.331C107.851 200.499 108.432 200.562 109.391 200.562C110.35 200.562 110.931 200.499 111.19 200.331C111.302 200.261 111.351 200.17 111.351 200.058C111.351 199.946 111.302 199.848 111.19 199.771C110.931 199.61 110.35 199.54 109.391 199.54C108.432 199.54 107.851 199.61 107.592 199.771C107.48 199.848 107.431 199.946 107.431 200.058ZM106.563 202.109V201.633H112.205V202.109H106.563ZM107.55 204.335V204.965H111.932V205.42H106.99V203.873H111.218V203.236H106.99V202.781H111.778V204.335H107.55ZM115.271 200.135V199.645H117.427V198.847H117.994V199.645H120.164V200.135H117.994C118.043 201.192 119.121 201.822 120.22 202.004V202.508C119.086 202.319 118.155 201.822 117.714 201.066C117.28 201.822 116.314 202.319 115.194 202.508V202.004C116.272 201.829 117.371 201.192 117.427 200.135H115.271ZM114.935 203.74V203.25H120.507V203.74H117.994V205.455H117.427V203.74H114.935ZM124.056 200.52V199.687H121.62V199.197H124.616V200.464C124.616 202.858 123.664 204.405 121.578 204.958V204.433C123.251 203.943 124.056 202.592 124.056 200.52ZM126.492 199.085V201.717H127.514V202.207H126.492V205.35H125.932V199.085H126.492ZM127.821 199.988V199.533H129.333V198.889H129.886V199.533H131.377V199.988H127.821ZM128.563 201.388C128.563 201.514 128.612 201.619 128.71 201.703C128.892 201.864 129.221 201.934 129.599 201.934C129.984 201.934 130.313 201.864 130.495 201.703C130.593 201.619 130.642 201.514 130.642 201.388C130.642 201.262 130.593 201.157 130.495 201.073C130.313 200.919 129.984 200.842 129.599 200.842C129.221 200.842 128.892 200.919 128.71 201.073C128.612 201.157 128.563 201.262 128.563 201.388ZM128.017 201.388C128.017 201.122 128.129 200.898 128.339 200.73C128.612 200.513 129.046 200.401 129.599 200.401C130.159 200.401 130.593 200.513 130.866 200.73C131.076 200.898 131.188 201.122 131.188 201.388C131.188 201.661 131.076 201.885 130.866 202.046C130.593 202.263 130.159 202.375 129.599 202.375C129.046 202.375 128.612 202.263 128.339 202.046C128.129 201.885 128.017 201.661 128.017 201.388ZM133.001 200.527H133.96V201.024H133.001V202.347H132.441V199.085H133.001V200.527ZM128.969 204.986H133.085V205.413H128.409V203.915H132.441V203.271H128.409V202.837H133.001V204.342H128.969V204.986ZM139.07 200.597C138.685 201.353 137.754 201.934 136.396 202.165V201.668C137.782 201.402 138.783 200.688 138.783 199.442V199.12H139.35V199.442C139.35 200.681 140.372 201.395 141.744 201.668V202.165C140.4 201.927 139.462 201.36 139.07 200.597ZM136.291 203.705V203.208H141.863V203.705H139.35V205.455H138.783V203.705H136.291ZM144.719 200.667C144.719 200.114 144.894 199.687 145.216 199.414C145.496 199.169 145.888 199.043 146.343 199.043C146.798 199.043 147.183 199.169 147.456 199.414C147.792 199.687 147.967 200.114 147.967 200.667C147.967 201.22 147.792 201.654 147.456 201.927C147.183 202.165 146.798 202.298 146.343 202.298C145.888 202.298 145.496 202.165 145.216 201.927C144.894 201.654 144.719 201.22 144.719 200.667ZM145.265 200.667C145.265 201.045 145.384 201.346 145.587 201.542C145.776 201.71 146.028 201.808 146.343 201.808C146.651 201.808 146.91 201.71 147.092 201.542C147.302 201.346 147.414 201.045 147.414 200.667C147.414 200.296 147.302 199.995 147.092 199.799C146.91 199.624 146.651 199.533 146.343 199.533C146.028 199.533 145.776 199.624 145.587 199.799C145.384 199.995 145.265 200.296 145.265 200.667ZM149.85 202.571H149.29V199.085H149.85V202.571ZM147.547 205.427C147.064 205.224 146.567 204.783 146.357 204.349C146.126 204.79 145.531 205.245 144.887 205.427V204.93C145.51 204.713 146.063 204.125 146.063 203.313V203.04H146.63V203.306C146.63 204.027 147.064 204.608 147.54 204.895C148.023 204.608 148.471 204.027 148.471 203.306V203.04H149.031V203.313C149.031 204.125 149.563 204.699 150.207 204.93V205.427C149.563 205.245 148.975 204.797 148.73 204.349C148.527 204.783 148.051 205.21 147.547 205.427ZM153.938 202.046C153.938 200.982 153.84 200.219 153.525 199.855C153.378 199.673 153.161 199.575 152.895 199.575C152.636 199.575 152.419 199.673 152.258 199.855C151.957 200.219 151.852 200.982 151.852 202.046C151.852 203.103 151.957 203.873 152.258 204.244C152.419 204.426 152.636 204.517 152.895 204.517C153.161 204.517 153.378 204.426 153.525 204.244C153.84 203.873 153.938 203.103 153.938 202.046ZM151.292 202.046C151.292 200.87 151.432 200.002 151.852 199.526C152.097 199.239 152.454 199.085 152.895 199.085C153.329 199.085 153.693 199.239 153.938 199.526C154.316 199.946 154.463 200.681 154.491 201.661H155.772V199.085H156.339V205.35H155.772V202.144H154.498C154.491 203.264 154.351 204.097 153.938 204.566C153.693 204.86 153.329 204.993 152.895 204.993C152.454 204.993 152.097 204.86 151.852 204.566C151.432 204.083 151.292 203.215 151.292 202.046ZM157.843 200.975C157.843 200.422 158.06 199.988 158.438 199.673C158.9 199.309 159.586 199.127 160.433 199.127C161.287 199.127 161.973 199.309 162.428 199.673C162.806 199.988 163.023 200.422 163.023 200.975C163.023 201.535 162.806 201.969 162.428 202.27C162.281 202.389 162.106 202.494 161.91 202.578V204.58H163.219V205.07H157.647V204.58H158.998V202.592C158.788 202.508 158.599 202.403 158.438 202.27C158.06 201.969 157.843 201.535 157.843 200.975ZM161.35 202.746C161.07 202.802 160.762 202.83 160.433 202.83C160.118 202.83 159.817 202.802 159.551 202.753V204.58H161.35V202.746ZM158.403 200.975C158.403 201.367 158.564 201.675 158.837 201.899C159.187 202.193 159.747 202.333 160.433 202.333C161.119 202.333 161.686 202.193 162.036 201.899C162.316 201.675 162.463 201.367 162.463 200.975C162.463 200.59 162.316 200.282 162.036 200.051C161.686 199.757 161.119 199.624 160.433 199.624C159.747 199.624 159.187 199.757 158.837 200.051C158.564 200.282 158.403 200.59 158.403 200.975ZM164.99 204.139V204.972H164.325V204.139H164.99Z" fill="#A0A0A0"/>
<path d="M138.781 41.1581C139.699 41.1531 141.656 40.7831 141.656 40.7831C141.656 40.7831 139.773 40.4348 138.777 40.4404C138.579 40.4415 138.219 40.4828 138.221 40.8025C138.223 41.1006 138.583 41.1593 138.781 41.1581Z" fill="#CFCFCF"/>
<path d="M144.459 40.4084C143.542 40.4134 141.584 40.7834 141.584 40.7834C141.584 40.7834 143.467 41.1317 144.463 41.1261C144.661 41.1253 145.021 41.0837 145.019 40.7643C145.017 40.4662 144.657 40.4076 144.459 40.4087L144.459 40.4084Z" fill="#CFCFCF"/>
<path d="M141.994 43.6207C141.989 42.7003 141.62 40.7368 141.62 40.7368C141.62 40.7368 141.273 42.6256 141.278 43.6249C141.279 43.823 141.321 44.184 141.639 44.182C141.937 44.1804 141.995 43.8188 141.994 43.6207Z" fill="#CFCFCF"/>
<path d="M141.247 37.9462C141.252 38.8666 141.621 40.83 141.621 40.83C141.621 40.83 141.968 38.9412 141.962 37.9419C141.961 37.7438 141.92 37.3831 141.601 37.3848C141.304 37.3865 141.246 37.748 141.247 37.9462Z" fill="#CFCFCF"/>
<path d="M65.1384 45.6899C66.0561 45.6848 68.0138 45.3149 68.0138 45.3149C68.0138 45.3149 66.1306 44.9665 65.1342 44.9721C64.9367 44.9733 64.5767 45.0145 64.5787 45.3342C64.5804 45.6323 64.9409 45.691 65.1384 45.6899Z" fill="#CFCFCF"/>
<path d="M70.8167 44.9401C69.899 44.9452 67.9413 45.3151 67.9413 45.3151C67.9413 45.3151 69.8246 45.6635 70.8209 45.6579C71.0185 45.657 71.3781 45.6155 71.3765 45.2961C71.3748 44.998 71.0143 44.9393 70.8167 44.9404L70.8167 44.9401Z" fill="#CFCFCF"/>
<path d="M68.3513 48.1524C68.3463 47.232 67.9774 45.2685 67.9774 45.2685C67.9774 45.2685 67.6301 47.1573 67.6357 48.1566C67.6368 48.3548 67.678 48.7157 67.9967 48.7138C68.294 48.7121 68.3525 48.3506 68.3513 48.1524Z" fill="#CFCFCF"/>
<path d="M67.6041 42.4779C67.6091 43.3983 67.978 45.3617 67.978 45.3617C67.978 45.3617 68.3253 43.473 68.3197 42.4737C68.3186 42.2755 68.2775 41.9148 67.9587 41.9165C67.6615 41.9182 67.603 42.2797 67.6041 42.4779Z" fill="#CFCFCF"/>
<path d="M35.6817 129.523C36.5993 129.518 38.557 129.148 38.557 129.148C38.557 129.148 36.6738 128.8 35.6775 128.806C35.4799 128.807 35.12 128.848 35.1219 129.168C35.1236 129.466 35.4841 129.524 35.6817 129.523Z" fill="#CFCFCF"/>
<path d="M41.3599 128.774C40.4422 128.779 38.4846 129.149 38.4846 129.149C38.4846 129.149 40.3678 129.497 41.3641 129.491C41.5617 129.491 41.9214 129.449 41.9197 129.13C41.918 128.831 41.5575 128.773 41.3599 128.774L41.3599 128.774Z" fill="#CFCFCF"/>
<path d="M38.8946 131.986C38.8895 131.065 38.5207 129.102 38.5207 129.102C38.5207 129.102 38.1733 130.991 38.1789 131.99C38.18 132.188 38.2212 132.549 38.54 132.547C38.8372 132.546 38.8957 132.184 38.8946 131.986Z" fill="#CFCFCF"/>
<path d="M38.1473 126.311C38.1523 127.232 38.5212 129.195 38.5212 129.195C38.5212 129.195 38.8685 127.306 38.8629 126.307C38.8618 126.109 38.8207 125.748 38.5019 125.75C38.2047 125.752 38.1462 126.113 38.1473 126.311Z" fill="#CFCFCF"/>
<g clip-path="url(#clip1_4055_285)">
<path d="M114.004 115.958C114.368 115.958 114.718 116.103 114.976 116.361C115.234 116.619 115.379 116.968 115.379 117.333C115.379 117.698 115.234 118.048 114.976 118.305C114.718 118.563 114.368 118.708 114.004 118.708H114C113.635 118.708 113.286 118.563 113.028 118.305C112.77 118.048 112.625 117.698 112.625 117.333C112.625 116.968 112.77 116.619 113.028 116.361C113.286 116.103 113.635 115.958 114 115.958H114.004ZM114 101.292C115.58 101.292 117.096 101.919 118.213 103.037C119.331 104.154 119.958 105.67 119.958 107.25C119.958 108.988 118.882 110.554 117.318 111.446C116.734 111.78 116.218 112.163 115.862 112.574C115.513 112.974 115.375 113.333 115.375 113.667C115.375 114.031 115.23 114.381 114.972 114.639C114.714 114.897 114.365 115.042 114 115.042C113.635 115.042 113.286 114.897 113.028 114.639C112.77 114.381 112.625 114.031 112.625 113.667C112.625 112.481 113.145 111.509 113.786 110.77C114.418 110.041 115.221 109.477 115.956 109.058C116.835 108.556 117.208 107.816 117.208 107.25C117.208 106.829 117.125 106.411 116.964 106.022C116.803 105.633 116.567 105.279 116.269 104.981C115.971 104.683 115.617 104.447 115.228 104.286C114.839 104.124 114.421 104.042 114 104.042C113.579 104.042 113.162 104.124 112.772 104.286C112.383 104.447 112.029 104.683 111.731 104.981C111.434 105.279 111.197 105.633 111.036 106.022C110.875 106.411 110.792 106.829 110.792 107.25C110.792 107.43 110.756 107.609 110.687 107.776C110.618 107.943 110.517 108.094 110.389 108.222C110.261 108.35 110.11 108.451 109.943 108.52C109.776 108.589 109.597 108.625 109.417 108.625C109.236 108.625 109.057 108.589 108.891 108.52C108.724 108.451 108.572 108.35 108.444 108.222C108.317 108.094 108.216 107.943 108.146 107.776C108.077 107.609 108.042 107.43 108.042 107.25C108.042 105.67 108.669 104.154 109.787 103.037C110.904 101.919 112.42 101.292 114 101.292Z" fill="#DDDDDD"/>
</g>
</g>
<defs>
<clipPath id="clip0_4055_285">
<rect width="193" height="244" fill="white"/>
</clipPath>
<clipPath id="clip1_4055_285">
<rect width="22" height="22" fill="white" transform="translate(103 99)"/>
</clipPath>
</defs>
</svg>
