<svg width="194" height="244" viewBox="0 0 194 244" fill="none" xmlns="http://www.w3.org/2000/svg">
<g clip-path="url(#clip0_4055_392)">
<path d="M193.465 0.543945H0.546631V243.468H193.465V0.543945Z" fill="white"/>
<path d="M56.3892 181.698H53.1192V180.758H57.4692V181.408C57.4692 184.218 55.7692 185.458 52.8992 185.738V184.788C55.0892 184.558 56.3892 183.558 56.3892 181.698ZM60.4492 185.758H59.3592V183.618H57.6192V182.658H59.3592V180.648H60.4492V185.758ZM53.6692 189.808V186.288H60.4492V189.808H53.6692ZM59.3592 187.218H54.7592V188.888H59.3592V187.218ZM64.0889 184.158C63.7389 184.858 62.8989 185.548 62.0189 185.888V184.878C62.8589 184.448 63.5389 183.638 63.5389 182.148V180.708H64.6089V182.118C64.6089 183.618 65.2889 184.258 66.1189 184.678V185.678C65.2689 185.398 64.4789 184.828 64.0889 184.158ZM66.6889 185.828V180.708H67.7189V182.728H68.8289V180.648H69.8789V185.888H68.8289V183.678H67.7189V185.828H66.6889ZM68.7989 189.868V187.428H62.9089V186.478H69.8789V189.868H68.7989ZM74.9385 181.708H71.7185V180.758H76.0185V181.498H77.9585V180.648H79.0485V185.088H77.9585V184.188H75.7785V183.268H77.9585V182.418H75.8985C75.4485 184.208 73.8285 184.918 71.4985 185.108V184.168C73.5785 184.008 74.9285 183.218 74.9385 181.708ZM73.3585 188.138V188.928H79.1585V189.808H72.2685V187.278H77.9585V186.468H72.2685V185.598H79.0485V188.138H73.3585ZM84.5981 184.448V181.768H81.1081V180.808H85.6781V184.288C85.6781 185.108 85.5981 186.098 85.4581 186.708H84.3881C84.5181 186.098 84.5981 185.208 84.5981 184.448ZM82.1081 188.268V184.138H83.1881V188.268H85.2081C86.0181 188.268 86.6481 188.108 87.0181 187.798V180.648H88.1081V184.348H89.5281V185.298H88.1081V189.718H87.0181V188.698C86.6481 189.038 85.9081 189.208 84.9981 189.208H80.8081V188.268H82.1081ZM93.6377 182.768V181.768H90.3177V180.808H94.7177V182.638C94.7177 186.098 93.3977 188.388 90.2677 189.188V188.158C92.5977 187.488 93.6377 185.608 93.6377 182.768ZM97.4077 180.648V184.348H98.8277V185.298H97.4077V189.718H96.3177V180.648H97.4077ZM102.107 182.928C102.107 182.108 102.417 181.488 102.917 181.088C103.327 180.768 103.867 180.588 104.487 180.588C105.117 180.588 105.657 180.768 106.057 181.088C106.467 181.408 106.737 181.868 106.827 182.458H108.467V180.648H109.557V185.438H108.467V183.388H106.837C106.747 183.988 106.467 184.458 106.057 184.768C105.657 185.098 105.117 185.278 104.487 185.278C103.867 185.278 103.327 185.098 102.917 184.768C102.417 184.378 102.107 183.758 102.107 182.928ZM103.167 182.928C103.167 183.398 103.327 183.788 103.607 184.018C103.827 184.228 104.137 184.338 104.487 184.338C104.837 184.338 105.147 184.228 105.377 184.018C105.657 183.788 105.807 183.398 105.807 182.928C105.807 182.458 105.657 182.088 105.377 181.838C105.147 181.638 104.837 181.528 104.487 181.528C104.137 181.528 103.827 181.638 103.607 181.838C103.327 182.088 103.167 182.458 103.167 182.928ZM105.037 187.008V185.918H106.037V189.808H102.667V185.918H103.677V187.008H105.037ZM105.037 187.888H103.677V188.918H105.037V187.888ZM107.597 185.918H108.667V186.808C108.667 187.978 109.117 188.578 109.867 188.908V189.848C109.167 189.688 108.477 189.218 108.147 188.678C107.817 189.218 107.117 189.698 106.427 189.848V188.908C107.187 188.588 107.597 187.978 107.597 186.808V185.918ZM115.297 182.468C114.557 183.278 113.057 183.908 111.487 184.028V183.088C113.107 182.908 114.757 182.168 114.757 180.898V180.708H115.837V180.898C115.837 182.168 117.437 182.878 119.127 183.088V184.028C117.507 183.888 116.077 183.278 115.297 182.468ZM111.227 185.548V184.628H119.397V185.548H111.227ZM111.827 186.228H112.907V187.088H117.717V186.228H118.807V189.808H111.827V186.228ZM117.717 188.898V188.008H112.907V188.898H117.717ZM124.917 189.108H120.897V180.758H121.977V188.158H125.117C125.967 188.158 126.647 187.968 127.047 187.618V180.648H128.137V189.718H127.047V188.498C126.667 188.888 125.867 189.108 124.917 189.108ZM134.056 189.108H130.126V180.808H134.496V181.768H131.206V188.158H134.256C135.086 188.158 135.746 187.978 136.126 187.638V180.648H137.216V184.348H138.636V185.298H137.216V189.718H136.126V188.538C135.756 188.898 134.976 189.108 134.056 189.108ZM140.576 187.788V189.118H139.336V187.788H140.576Z" fill="#939090"/>
<path d="M58.3032 205.102H55.6012V199.39H58.5552V199.88H56.1612V204.619H58.3942C59.0382 204.619 59.5912 204.451 59.9132 204.143V199.278H60.4732V201.91H61.4952V202.4H60.4732V205.543H59.9132V204.612C59.6122 204.927 58.9962 205.102 58.3032 205.102ZM62.8879 201.028V201.77H67.1579V202.239H62.3279V200.559H66.5559V199.824H62.3279V199.348H67.1159V201.028H62.8879ZM61.9009 203.45V202.967H67.5429V203.45H61.9009ZM62.8879 204.024V205.095H67.2419V205.571H62.3279V204.024H62.8879ZM70.5038 199.39H73.4438V200.657C73.4438 203.03 72.5198 204.605 70.4618 205.137V204.626C71.6938 204.255 72.4358 203.401 72.7368 202.134C72.4288 202.239 71.9598 202.295 71.4418 202.295H70.4618V201.798H71.4558C72.0158 201.798 72.5198 201.742 72.8278 201.623C72.8628 201.336 72.8838 201.035 72.8838 200.713V199.88H70.5038V199.39ZM75.4738 199.278V205.536H74.9068V199.278H75.4738ZM77.0765 200.881C77.0765 200.356 77.2585 199.95 77.5805 199.684C77.8745 199.439 78.2805 199.313 78.7565 199.313C79.2325 199.313 79.6455 199.439 79.9325 199.684C80.2545 199.95 80.4435 200.356 80.4435 200.881C80.4435 201.392 80.2545 201.805 79.9325 202.071C79.6455 202.309 79.2325 202.435 78.7565 202.435C78.2805 202.435 77.8745 202.309 77.5805 202.071C77.2585 201.805 77.0765 201.392 77.0765 200.881ZM77.6365 200.881C77.6365 201.217 77.7415 201.483 77.9375 201.665C78.1335 201.847 78.4135 201.952 78.7565 201.952C79.1065 201.952 79.3795 201.847 79.5755 201.665C79.7715 201.483 79.8835 201.217 79.8835 200.881C79.8835 200.531 79.7715 200.272 79.5755 200.083C79.3795 199.908 79.1065 199.81 78.7565 199.81C78.4135 199.81 78.1335 199.908 77.9375 200.083C77.7415 200.272 77.6365 200.531 77.6365 200.881ZM82.0535 199.278V205.536H81.4935V204.738H79.9885V204.248H81.4935V199.278H82.0535ZM78.8265 203.527V205.543H78.2665V203.527H76.8035V203.037H79.6665C80.1075 203.037 80.6185 202.96 80.9685 202.834V203.303C80.6325 203.471 80.1425 203.527 79.6455 203.527H78.8265ZM88.5212 199.88H84.1882V202.414H88.5982V202.911H83.6282V199.39H88.5212V199.88ZM83.2922 205.263V204.773H88.8642V205.263H83.2922ZM90.6979 201.588V202.82H95.1149V203.303H92.8819V204.773H95.3739V205.263H89.8019V204.773H92.3149V203.303H90.1379V201.105H94.4709V199.88H90.1379V199.39H95.0309V201.588H90.6979ZM100.715 199.838H98.3138V199.348H101.275V199.705C101.275 201.623 100.05 202.526 98.1528 202.715V202.225C99.7138 202.064 100.715 201.28 100.715 199.838ZM103.361 202.785H102.801V201.224H101.464V200.727H102.801V199.278H103.361V202.785ZM98.7058 205.613V203.268H103.361V205.613H98.7058ZM102.801 203.751H99.2728V205.13H102.801V203.751ZM105.958 201.497C105.748 202.036 105.16 202.568 104.523 202.827V202.302C105.111 202.008 105.678 201.406 105.678 200.391V199.313H106.231V200.377C106.231 201.385 106.784 201.896 107.386 202.162V202.68C106.756 202.477 106.189 202.015 105.958 201.497ZM107.89 202.834V199.313H108.422V200.748H109.423V199.278H109.969V202.869H109.423V201.245H108.422V202.834H107.89ZM109.402 205.648V203.898H105.181V203.408H109.969V205.648H109.402ZM111.207 200.538V200.048H112.278V199.082H112.845V200.048H113.881V200.538H111.207ZM111.886 203.184C111.886 203.94 111.998 204.388 112.208 204.598C112.306 204.703 112.425 204.752 112.565 204.752C112.705 204.752 112.831 204.703 112.922 204.598C113.132 204.388 113.244 203.94 113.244 203.184C113.244 202.428 113.132 201.98 112.922 201.77C112.831 201.665 112.705 201.623 112.565 201.623C112.425 201.623 112.306 201.665 112.208 201.77C111.998 201.98 111.886 202.428 111.886 203.184ZM111.347 203.184C111.347 202.274 111.522 201.658 111.9 201.357C112.082 201.217 112.306 201.14 112.565 201.14C112.831 201.14 113.055 201.217 113.23 201.357C113.608 201.658 113.79 202.274 113.79 203.184C113.79 204.101 113.608 204.71 113.23 205.011C113.055 205.158 112.831 205.221 112.565 205.221C112.306 205.221 112.082 205.158 111.9 205.011C111.522 204.71 111.347 204.101 111.347 203.184ZM116.45 205.543H115.911V202.351H115.071V205.473H114.539V199.313H115.071V201.861H115.911V199.278H116.45V205.543ZM118.564 200.706H122.337V199.39H122.897V203.142H120.748V204.773H123.24V205.263H117.668V204.773H120.181V203.142H118.004V199.39H118.564V200.706ZM122.337 202.645V201.203H118.564V202.645H122.337ZM125.445 203.555C125.242 204.178 124.731 204.766 124.038 205.102V204.584C124.682 204.199 125.165 203.52 125.165 202.106V199.348H125.718V202.106C125.718 203.527 126.208 204.192 126.859 204.591V205.109C126.173 204.766 125.662 204.178 125.445 203.555ZM128.056 205.473H127.51V202.127H126.439V201.644H127.51V199.313H128.056V205.473ZM129.47 205.543H128.924V199.278H129.47V205.543ZM130.883 201.168C130.883 200.615 131.1 200.181 131.478 199.866C131.94 199.502 132.626 199.32 133.473 199.32C134.327 199.32 135.013 199.502 135.468 199.866C135.846 200.181 136.063 200.615 136.063 201.168C136.063 201.728 135.846 202.162 135.468 202.463C135.321 202.582 135.146 202.687 134.95 202.771V204.773H136.259V205.263H130.687V204.773H132.038V202.785C131.828 202.701 131.639 202.596 131.478 202.463C131.1 202.162 130.883 201.728 130.883 201.168ZM134.39 202.939C134.11 202.995 133.802 203.023 133.473 203.023C133.158 203.023 132.857 202.995 132.591 202.946V204.773H134.39V202.939ZM131.443 201.168C131.443 201.56 131.604 201.868 131.877 202.092C132.227 202.386 132.787 202.526 133.473 202.526C134.159 202.526 134.726 202.386 135.076 202.092C135.356 201.868 135.503 201.56 135.503 201.168C135.503 200.783 135.356 200.475 135.076 200.244C134.726 199.95 134.159 199.817 133.473 199.817C132.787 199.817 132.227 199.95 131.877 200.244C131.604 200.475 131.443 200.783 131.443 201.168ZM137.981 200.636L137.925 203.604H137.449L137.386 200.636V199.677H137.981V200.636ZM137.995 204.409V205.165H137.379V204.409H137.995Z" fill="#A0A0A0"/>
<path d="M116.446 74.2491C106.902 74.3057 97.2108 73.8639 88.1457 71.3602C79.0806 68.8565 71.0632 64.1324 63.7747 58.6153C59.003 55.0241 54.6641 52.1692 48.4688 52.5997C42.4114 52.9164 36.6174 55.1647 31.9444 59.0118C24.0636 65.8771 25.2594 78.5653 28.4026 87.4924C33.1401 100.94 47.5577 110.275 59.8002 116.358C73.9559 123.393 89.5009 127.483 105.092 129.828C118.758 131.89 136.307 133.397 148.139 124.515C159.015 116.37 161.999 97.745 159.334 85.17C158.686 81.4559 156.697 78.1046 153.742 75.7445C146.101 70.1933 134.713 73.8979 126.126 74.0905C122.994 74.1584 119.703 74.2377 116.446 74.2491Z" fill="#F5F5F5"/>
<path d="M32.9122 106.343C33.5286 106.343 34.0283 105.846 34.0283 105.233C34.0283 104.62 33.5286 104.123 32.9122 104.123C32.2958 104.123 31.7961 104.62 31.7961 105.233C31.7961 105.846 32.2958 106.343 32.9122 106.343Z" fill="#CFCFCF"/>
<path d="M127.936 35.3118C128.553 35.3118 129.053 34.8147 129.053 34.2015C129.053 33.5884 128.553 33.0913 127.936 33.0913C127.32 33.0913 126.82 33.5884 126.82 34.2015C126.82 34.8147 127.32 35.3118 127.936 35.3118Z" fill="#CFCFCF"/>
<path d="M102.153 151.851C125.236 151.851 143.948 150.695 143.948 149.269C143.948 147.842 125.236 146.686 102.153 146.686C79.0704 146.686 60.358 147.842 60.358 149.269C60.358 150.695 79.0704 151.851 102.153 151.851Z" fill="#F2F2F2"/>
<path d="M64.6948 43.0493H125.282C126.789 43.0493 128.235 43.6672 129.301 44.7669C130.367 45.8667 130.966 47.3583 130.966 48.9136V123.284C130.966 124.839 130.367 126.331 129.301 127.431C128.235 128.53 126.789 129.148 125.282 129.148H56.931C55.4237 129.148 53.978 128.53 52.9121 127.431C51.8462 126.331 51.2474 124.839 51.2474 123.284V57.0649L64.6948 43.0493Z" fill="white" stroke="#DDDDDD" stroke-linecap="round" stroke-linejoin="round"/>
<path d="M119.994 78.1689H63.358C61.7012 78.1689 60.358 79.5121 60.358 81.1689V115.953C60.358 117.61 61.7012 118.953 63.358 118.953H119.994C121.651 118.953 122.994 117.61 122.994 115.953V81.1689C122.994 79.5121 121.651 78.1689 119.994 78.1689Z" fill="#AEAEAE"/>
<path d="M51.3386 57.0516H62.3739C63.0213 57.0486 63.6412 56.7907 64.0979 56.3342C64.5546 55.8778 64.811 55.2599 64.811 54.6159V43.5137L51.3386 57.0516Z" fill="white" stroke="#DDDDDD" stroke-linecap="round" stroke-linejoin="round"/>
<path d="M130.624 62.9204H68.7171C66.3082 62.9204 64.3553 64.863 64.3553 67.2593V80.4348C64.3553 82.8311 66.3082 84.7737 68.7171 84.7737H130.624C133.033 84.7737 134.986 82.8311 134.986 80.4348V67.2593C134.986 64.863 133.033 62.9204 130.624 62.9204Z" fill="white" stroke="#DDDDDD" stroke-linecap="round" stroke-linejoin="round"/>
<path d="M75.1629 76.2775C76.4208 76.2775 77.4406 75.2577 77.4406 73.9998C77.4406 72.7419 76.4208 71.7222 75.1629 71.7222C73.905 71.7222 72.8853 72.7419 72.8853 73.9998C72.8853 75.2577 73.905 76.2775 75.1629 76.2775Z" fill="#D2D2D2"/>
<path d="M86.5512 76.2775C87.8091 76.2775 88.8289 75.2578 88.8289 73.9998C88.8289 72.7419 87.8091 71.7222 86.5512 71.7222C85.2933 71.7222 84.2736 72.7419 84.2736 73.9998C84.2736 75.2578 85.2933 76.2775 86.5512 76.2775Z" fill="#D2D2D2"/>
<path d="M130.624 87.1411H68.7171C66.3082 87.1411 64.3553 89.0837 64.3553 91.4801V104.655C64.3553 107.052 66.3082 108.994 68.7171 108.994H130.624C133.033 108.994 134.986 107.052 134.986 104.655V91.4801C134.986 89.0837 133.033 87.1411 130.624 87.1411Z" fill="white" stroke="#DDDDDD" stroke-linecap="round" stroke-linejoin="round"/>
<path d="M75.1629 100.277C76.4208 100.277 77.4406 99.2577 77.4406 97.9998C77.4406 96.7419 76.4208 95.7222 75.1629 95.7222C73.905 95.7222 72.8853 96.7419 72.8853 97.9998C72.8853 99.2577 73.905 100.277 75.1629 100.277Z" fill="#D2D2D2"/>
<path d="M86.5512 100.277C87.8091 100.277 88.8289 99.2577 88.8289 97.9998C88.8289 96.7419 87.8091 95.7222 86.5512 95.7222C85.2933 95.7222 84.2736 96.7419 84.2736 97.9998C84.2736 99.2577 85.2933 100.277 86.5512 100.277Z" fill="#D2D2D2"/>
<path d="M130.624 111.374H68.7171C66.3082 111.374 64.3553 113.316 64.3553 115.712V128.888C64.3553 131.284 66.3082 133.227 68.7171 133.227H130.624C133.033 133.227 134.986 131.284 134.986 128.888V115.712C134.986 113.316 133.033 111.374 130.624 111.374Z" fill="white" stroke="#DDDDDD" stroke-linecap="round" stroke-linejoin="round"/>
<path d="M75.1629 124.277C76.4208 124.277 77.4406 123.258 77.4406 122C77.4406 120.742 76.4208 119.722 75.1629 119.722C73.905 119.722 72.8853 120.742 72.8853 122C72.8853 123.258 73.905 124.277 75.1629 124.277Z" fill="#D2D2D2"/>
<path d="M86.5512 124.277C87.8091 124.277 88.8289 123.258 88.8289 122C88.8289 120.742 87.8091 119.722 86.5512 119.722C85.2933 119.722 84.2736 120.742 84.2736 122C84.2736 123.258 85.2933 124.277 86.5512 124.277Z" fill="#D2D2D2"/>
<path d="M126.385 91.7135C137.064 91.7135 145.72 83.1022 145.72 72.4796C145.72 61.8569 137.064 53.2456 126.385 53.2456C115.707 53.2456 107.05 61.8569 107.05 72.4796C107.05 83.1022 115.707 91.7135 126.385 91.7135Z" fill="white" stroke="#DDDDDD" stroke-linecap="round" stroke-linejoin="round"/>
<path d="M140.115 86.4341L145.263 91.5557" stroke="#DDDDDD" stroke-linecap="round" stroke-linejoin="round"/>
<path d="M144.688 89.0693L143.09 90.7326C142.371 91.4809 142.398 92.6672 143.15 93.3825L157.038 106.59C157.79 107.305 158.983 107.279 159.702 106.53L161.3 104.867C162.02 104.119 161.993 102.932 161.241 102.217L147.352 89.0097C146.6 88.2944 145.407 88.3211 144.688 89.0693Z" fill="white" stroke="#DDDDDD" stroke-linecap="round" stroke-linejoin="round"/>
<mask id="mask0_4055_392" style="mask-type:alpha" maskUnits="userSpaceOnUse" x="86" y="109" width="26" height="26">
<rect x="86.5511" y="109.89" width="24.7224" height="24.5932" fill="#D2D2D2"/>
</mask>
<g mask="url(#mask0_4055_392)">
<path d="M98.9123 123.749L100.87 125.706C101.058 125.895 101.299 125.989 101.591 125.989C101.882 125.989 102.123 125.895 102.312 125.706C102.501 125.517 102.595 125.277 102.595 124.985C102.595 124.693 102.501 124.453 102.312 124.264L100.354 122.307L102.312 120.349C102.501 120.161 102.595 119.92 102.595 119.628C102.595 119.337 102.501 119.096 102.312 118.907C102.123 118.718 101.882 118.624 101.591 118.624C101.299 118.624 101.058 118.718 100.87 118.907L98.9123 120.864L96.9552 118.907C96.7663 118.718 96.5259 118.624 96.2341 118.624C95.9422 118.624 95.7019 118.718 95.513 118.907C95.3242 119.096 95.2297 119.337 95.2297 119.628C95.2297 119.92 95.3242 120.161 95.513 120.349L97.4702 122.307L95.513 124.264C95.3242 124.453 95.2297 124.693 95.2297 124.985C95.2297 125.277 95.3242 125.517 95.513 125.706C95.7019 125.895 95.9422 125.989 96.2341 125.989C96.5259 125.989 96.7663 125.895 96.9552 125.706L98.9123 123.749Z" fill="#D2D2D2"/>
</g>
<mask id="mask1_4055_392" style="mask-type:alpha" maskUnits="userSpaceOnUse" x="86" y="83" width="26" height="25">
<rect x="86.5511" y="83.0986" width="24.7224" height="24.5932" fill="#D2D2D2"/>
</mask>
<g mask="url(#mask1_4055_392)">
<path d="M98.9123 99.7483L100.87 101.705C101.058 101.894 101.299 101.989 101.591 101.989C101.882 101.989 102.123 101.894 102.312 101.705C102.501 101.517 102.595 101.276 102.595 100.984C102.595 100.693 102.501 100.452 102.312 100.263L100.354 98.3061L102.312 96.349C102.501 96.1601 102.595 95.9197 102.595 95.6279C102.595 95.336 102.501 95.0957 102.312 94.9068C102.123 94.718 101.882 94.6235 101.591 94.6235C101.299 94.6235 101.058 94.718 100.87 94.9068L98.9123 96.864L96.9552 94.9068C96.7663 94.718 96.5259 94.6235 96.2341 94.6235C95.9422 94.6235 95.7019 94.718 95.513 94.9068C95.3242 95.0957 95.2297 95.336 95.2297 95.6279C95.2297 95.9197 95.3242 96.1601 95.513 96.349L97.4702 98.3061L95.513 100.263C95.3242 100.452 95.2297 100.693 95.2297 100.984C95.2297 101.276 95.3242 101.517 95.513 101.705C95.7019 101.894 95.9422 101.989 96.2341 101.989C96.5259 101.989 96.7663 101.894 96.9552 101.705L98.9123 99.7483Z" fill="#D2D2D2"/>
</g>
<mask id="mask2_4055_392" style="mask-type:alpha" maskUnits="userSpaceOnUse" x="86" y="56" width="26" height="25">
<rect x="86.5511" y="56.1758" width="24.7224" height="24.5932" fill="#D2D2D2"/>
</mask>
<g mask="url(#mask2_4055_392)">
<path d="M98.9123 75.7488L100.87 77.706C101.058 77.8948 101.299 77.9892 101.591 77.9892C101.882 77.9892 102.123 77.8948 102.312 77.706C102.501 77.5171 102.595 77.2768 102.595 76.9849C102.595 76.693 102.501 76.4527 102.312 76.2638L100.354 74.3066L102.312 72.3494C102.501 72.1606 102.595 71.9202 102.595 71.6284C102.595 71.3365 102.501 71.0962 102.312 70.9073C102.123 70.7184 101.882 70.624 101.591 70.624C101.299 70.624 101.058 70.7184 100.87 70.9073L98.9123 72.8645L96.9552 70.9073C96.7663 70.7184 96.5259 70.624 96.2341 70.624C95.9422 70.624 95.7019 70.7184 95.513 70.9073C95.3242 71.0962 95.2297 71.3365 95.2297 71.6284C95.2297 71.9202 95.3242 72.1606 95.513 72.3494L97.4702 74.3066L95.513 76.2638C95.3242 76.4527 95.2297 76.693 95.2297 76.9849C95.2297 77.2768 95.3242 77.5171 95.513 77.706C95.7019 77.8948 95.9422 77.9892 96.2341 77.9892C96.5259 77.9892 96.7663 77.8948 96.9552 77.706L98.9123 75.7488Z" fill="#D2D2D2"/>
</g>
<path d="M149.75 132.922C150.672 132.917 152.64 132.547 152.64 132.547C152.64 132.547 150.747 132.198 149.745 132.204C149.547 132.205 149.185 132.246 149.187 132.566C149.189 132.864 149.551 132.923 149.75 132.922Z" fill="#CFCFCF"/>
<path d="M155.457 132.172C154.535 132.177 152.567 132.547 152.567 132.547C152.567 132.547 154.46 132.895 155.462 132.89C155.66 132.889 156.022 132.847 156.02 132.528C156.018 132.23 155.656 132.171 155.457 132.172L155.457 132.172Z" fill="#CFCFCF"/>
<path d="M152.979 135.384C152.974 134.464 152.603 132.5 152.603 132.5C152.603 132.5 152.254 134.389 152.26 135.389C152.261 135.587 152.302 135.948 152.623 135.946C152.922 135.944 152.98 135.582 152.979 135.384Z" fill="#CFCFCF"/>
<path d="M152.228 129.71C152.233 130.63 152.604 132.594 152.604 132.594C152.604 132.594 152.953 130.705 152.947 129.706C152.946 129.507 152.905 129.147 152.585 129.148C152.286 129.15 152.227 129.512 152.228 129.71Z" fill="#CFCFCF"/>
<path d="M54.0878 35.4941C55.0103 35.489 56.9781 35.1191 56.9781 35.1191C56.9781 35.1191 55.0851 34.7707 54.0836 34.7763C53.885 34.7775 53.5232 34.8187 53.5252 35.1384C53.5269 35.4365 53.8892 35.4952 54.0878 35.4941Z" fill="#CFCFCF"/>
<path d="M59.7955 34.7443C58.8731 34.7494 56.9052 35.1193 56.9052 35.1193C56.9052 35.1193 58.7982 35.4677 59.7997 35.4621C59.9983 35.4612 60.3598 35.4197 60.3581 35.1002C60.3565 34.8022 59.9941 34.7435 59.7955 34.7446L59.7955 34.7443Z" fill="#CFCFCF"/>
<path d="M57.3174 37.9566C57.3123 37.0362 56.9415 35.0727 56.9415 35.0727C56.9415 35.0727 56.5924 36.9615 56.598 37.9608C56.5992 38.159 56.6405 38.5199 56.9609 38.518C57.2597 38.5163 57.3185 38.1548 57.3174 37.9566Z" fill="#CFCFCF"/>
<path d="M56.5662 32.2821C56.5713 33.2025 56.9421 35.1659 56.9421 35.1659C56.9421 35.1659 57.2912 33.2772 57.2856 32.2779C57.2845 32.0797 57.2431 31.719 56.9227 31.7207C56.6239 31.7224 56.5651 32.0839 56.5662 32.2821Z" fill="#CFCFCF"/>
</g>
<defs>
<clipPath id="clip0_4055_392">
<rect width="194" height="244" fill="white"/>
</clipPath>
</defs>
</svg>
