<svg width="24" height="24" viewBox="0 0 24 24" fill="none" xmlns="http://www.w3.org/2000/svg">
<path d="M1.97622 13.3231C5.2162 13.3052 12.128 11.999 12.128 11.999C12.128 11.999 5.47904 10.769 1.9614 10.7889C1.26381 10.7928 -0.00688817 10.9385 2.84927e-05 12.0674C0.00595706 13.1199 1.27863 13.327 1.97622 13.3231Z" fill="currentColor"/>
<path d="M22.0238 10.6759C18.7838 10.6937 11.8721 12 11.8721 12C11.8721 12 18.521 13.2299 22.0386 13.2101C22.7362 13.2071 24.0059 13.0604 24 11.9326C23.9941 10.88 22.7214 10.6729 22.0238 10.6769L22.0238 10.6759Z" fill="currentColor"/>
<path d="M13.3196 22.0178C13.3018 18.7681 11.9995 11.8355 11.9995 11.8355C11.9995 11.8355 10.7733 18.5044 10.793 22.0327C10.797 22.7324 10.9422 24.0069 12.0677 24C13.117 23.994 13.3236 22.7175 13.3196 22.0178Z" fill="currentColor"/>
<path d="M10.6814 1.98218C10.6992 5.23193 12.0015 12.1645 12.0015 12.1645C12.0015 12.1645 13.2277 5.49556 13.208 1.96731C13.204 1.26761 13.0588 -0.00592602 11.9333 2.04203e-05C10.884 0.00596687 10.6774 1.28248 10.6814 1.98218Z" fill="currentColor"/>
</svg>
