<svg width="24" height="24" viewBox="0 0 24 24" fill="none" xmlns="http://www.w3.org/2000/svg">
<path d="M4.85811 12.9429C7.1666 12.9302 12.0912 11.9995 12.0912 11.9995C12.0912 11.9995 7.35387 11.1231 4.84755 11.1373C4.35052 11.1401 3.44515 11.2439 3.45007 12.0482C3.4543 12.7981 4.36107 12.9457 4.85811 12.9429Z" fill="#444444"/>
<path d="M19.142 11.0568C16.8335 11.0695 11.9089 12.0002 11.9089 12.0002C11.9089 12.0002 16.6462 12.8765 19.1526 12.8624C19.6496 12.8602 20.5543 12.7557 20.55 11.9521C20.5458 11.2022 19.639 11.0546 19.142 11.0575L19.142 11.0568Z" fill="#444444"/>
<path d="M12.9403 19.1379C12.9276 16.8224 11.9997 11.883 11.9997 11.883C11.9997 11.883 11.126 16.6346 11.1401 19.1485C11.1429 19.647 11.2464 20.5551 12.0483 20.5502C12.7959 20.5459 12.9431 19.6364 12.9403 19.1379Z" fill="#444444"/>
<path d="M11.0605 4.8625C11.0732 7.17794 12.0011 12.1174 12.0011 12.1174C12.0011 12.1174 12.8748 7.36578 12.8607 4.85191C12.8579 4.35337 12.7544 3.44597 11.9525 3.45021C11.2049 3.45445 11.0577 4.36396 11.0605 4.8625Z" fill="#444444"/>
<path d="M7.64964 17.6734C9.26071 16.0445 12.0635 11.9355 12.0635 11.9355C12.0635 11.9355 8.12404 14.645 6.37514 16.4137C6.02832 16.7645 5.46582 17.4727 6.0337 18.0337C6.56292 18.557 7.30283 18.0242 7.64964 17.6734Z" fill="#444444"/>
<path d="M16.3498 6.32605C14.7388 7.95496 11.936 12.064 11.936 12.064C11.936 12.064 15.8754 9.35446 17.6243 7.58573C17.9716 7.23545 18.5332 6.52725 17.9663 5.9663C17.437 5.443 16.6971 5.97576 16.3503 6.32655L16.3498 6.32605Z" fill="#444444"/>
<path d="M17.6687 16.3491C16.0349 14.7331 11.9175 11.918 11.9175 11.918C11.9175 11.918 14.6389 15.8656 16.4129 17.6198C16.7647 17.9677 17.4746 18.5323 18.0338 17.9661C18.5555 17.4385 18.0205 16.697 17.6687 16.3491Z" fill="#444444"/>
<path d="M6.33179 7.65039C7.96556 9.26637 12.083 12.0815 12.083 12.0815C12.083 12.0815 9.36164 8.13391 7.58764 6.37967C7.23581 6.0318 6.52642 5.46765 5.96667 6.03335C5.44496 6.561 5.97996 7.30252 6.33179 7.65039Z" fill="#444444"/>
</svg>
