<svg width="150" height="31" viewBox="0 0 150 31" fill="none" xmlns="http://www.w3.org/2000/svg">
<path d="M143.872 17.0821C142.111 17.0724 138.355 16.3625 138.355 16.3625C138.355 16.3625 141.968 15.694 143.88 15.7048C144.259 15.7069 144.95 15.7861 144.946 16.3996C144.943 16.9716 144.251 17.0842 143.872 17.0821Z" fill="white"/>
<path d="M132.977 15.6434C134.738 15.6531 138.494 16.363 138.494 16.363C138.494 16.363 134.88 17.0314 132.969 17.0207C132.589 17.019 131.899 16.9393 131.903 16.3264C131.906 15.7543 132.598 15.6418 132.977 15.6439L132.977 15.6434Z" fill="white"/>
<path d="M137.707 21.8074C137.717 20.0413 138.425 16.2736 138.425 16.2736C138.425 16.2736 139.091 19.898 139.08 21.8155C139.078 22.1958 138.999 22.8885 138.388 22.8847C137.817 22.8815 137.705 22.1877 137.707 21.8074Z" fill="white"/>
<path d="M139.141 10.9186C139.131 12.6847 138.424 16.4524 138.424 16.4524C138.424 16.4524 137.757 12.828 137.768 10.9105C137.77 10.5302 137.849 9.83809 138.461 9.84132C139.031 9.84455 139.143 10.5383 139.141 10.9186Z" fill="white"/>
<path d="M141.743 20.6905C140.514 19.448 138.376 16.3138 138.376 16.3138C138.376 16.3138 141.381 18.3805 142.715 19.7297C142.979 19.9972 143.408 20.5374 142.975 20.9653C142.572 21.3644 142.007 20.9581 141.743 20.6905Z" fill="white"/>
<path d="M135.106 12.035C136.335 13.2775 138.473 16.4118 138.473 16.4118C138.473 16.4118 135.468 14.345 134.134 12.9959C133.869 12.7287 133.441 12.1885 133.873 11.7606C134.277 11.3615 134.841 11.7679 135.106 12.0354L135.106 12.035Z" fill="white"/>
<path d="M134.1 19.6804C135.347 18.4477 138.487 16.3004 138.487 16.3004C138.487 16.3004 136.411 19.3115 135.058 20.6496C134.79 20.915 134.248 21.3457 133.822 20.9138C133.424 20.5113 133.832 19.9457 134.1 19.6804Z" fill="white"/>
<path d="M142.748 13.0452C141.502 14.2778 138.361 16.4252 138.361 16.4252C138.361 16.4252 140.437 13.414 141.79 12.076C142.058 11.8106 142.599 11.3803 143.026 11.8118C143.424 12.2143 143.016 12.7799 142.748 13.0452Z" fill="white"/>
<path d="M148.969 16.4073C148.969 12.1108 145.486 8.6278 141.189 8.62779L139.591 8.62779C139.462 8.62779 139.358 8.52372 139.358 8.39533L139.358 7.82889C139.358 7.70051 139.462 7.59644 139.591 7.59644L141.189 7.59644C146.055 7.59645 150 11.5412 150 16.4073C150 21.2733 146.055 25.2181 141.189 25.2181L139.591 25.2181C139.462 25.2181 139.358 25.114 139.358 24.9856L139.358 24.4192C139.358 24.2908 139.462 24.1867 139.591 24.1867L141.189 24.1867C145.486 24.1867 148.969 20.7037 148.969 16.4073Z" fill="white"/>
<path d="M122.825 16.4073C122.825 11.5412 126.77 7.59644 131.636 7.59644L137.238 7.59644C137.367 7.59644 137.471 7.70051 137.471 7.82889L137.471 8.39533C137.471 8.52371 137.367 8.62779 137.238 8.62779L131.636 8.62779C127.339 8.62779 123.856 12.1108 123.856 16.4073C123.856 20.7037 127.339 24.1867 131.636 24.1867L137.238 24.1867C137.367 24.1867 137.471 24.2908 137.471 24.4192L137.471 24.9856C137.471 25.114 137.367 25.2181 137.238 25.2181L131.636 25.2181C126.77 25.2181 122.825 21.2733 122.825 16.4073Z" fill="white"/>
<path d="M10.0735 9.50391C11.2357 9.50391 12.0768 9.79446 12.5967 10.3756C13.1472 10.9567 13.4072 11.6601 13.3766 12.4859L15.2576 9.50391H18.1479L11.5874 20.2851C10.9757 21.325 10.7616 22.1507 10.9451 22.7624C11.1286 23.3741 11.4651 23.68 11.9544 23.68C12.6579 23.68 13.4684 23.2518 14.3859 22.3954C15.3035 21.5085 16.5575 20.2086 18.1479 18.4959C18.5761 18.0065 18.9737 17.563 19.3407 17.1654C19.7383 16.7372 20.0747 16.3549 20.35 16.0185C20.6864 15.6515 21.5859 14.573 21.8611 14.2366H22.6431C21.2668 15.827 19.5548 17.9453 18.5149 19.1381C17.5056 20.3309 16.588 21.3097 15.7622 22.0743C14.967 22.8389 14.2483 23.42 13.606 23.8176C12.9637 24.1846 12.3367 24.3681 11.725 24.3681C10.8993 24.3681 10.2264 24.0011 9.70645 23.2671C9.21709 22.5331 9.06416 21.5849 9.24767 20.4227C8.45247 21.5849 7.59609 22.5636 6.67854 23.3588C5.761 24.1541 4.72111 24.5517 3.55889 24.5517C2.64134 24.5517 1.87672 24.2764 1.26502 23.7259C0.683912 23.1448 0.301601 22.3954 0.118092 21.4779C-0.0654169 20.5603 -0.034832 19.5204 0.209847 18.3582C0.48511 17.196 1.03564 16.0185 1.86143 14.8257C3.02365 13.1435 4.29293 11.8436 5.66924 10.9261C7.07615 9.97797 8.54422 9.50391 10.0735 9.50391ZM10.5322 10.1003C9.55352 10.1003 8.57481 10.5285 7.59609 11.3849C6.61738 12.2107 5.65395 13.4035 4.70582 14.9633C4.03295 16.0949 3.5283 17.196 3.19187 18.2665C2.88602 19.3064 2.7331 20.2392 2.7331 21.065C2.7331 21.8602 2.85544 22.5025 3.10012 22.9918C3.37538 23.4812 3.75769 23.7259 4.24705 23.7259C4.76699 23.7259 5.31752 23.4965 5.89863 23.0377C6.47974 22.5789 7.07615 21.9672 7.68785 21.2026C8.29954 20.438 8.91124 19.5663 9.52294 18.5876C10.1652 17.6089 10.8075 16.6149 11.4498 15.6056C11.9697 14.7798 12.2909 14.0305 12.4132 13.3576C12.5661 12.6847 12.5814 12.1189 12.4591 11.6601C12.3673 11.1708 12.1379 10.7885 11.7709 10.5132C11.4345 10.2379 11.0216 10.1003 10.5322 10.1003Z" fill="white"/>
<path d="M20.536 24.3718V23.95C21.5302 23.6186 21.741 22.7149 21.741 20.5458V13.6169C21.741 11.8394 21.2892 11.5382 20.536 11.2068V10.785L24.5126 9.03774L24.8139 9.27874V12.924C25.2658 11.8696 26.049 10.9357 27.0131 10.2729C28.1277 9.48963 29.2725 9.09799 30.7185 9.09799C31.7428 9.09799 32.6466 9.36912 32.6466 10.0018C32.6466 10.6645 31.9838 11.9599 30.598 11.9599C29.7545 11.9599 28.6097 11.6587 26.6817 11.0562C25.9285 11.6888 24.9043 13.0445 24.8139 14.5508V20.5458C24.8139 22.7149 25.0248 23.6186 26.0189 23.95V24.3718H20.536Z" fill="white"/>
<path d="M39.8871 24.673C36.1817 24.673 32.7473 22.0822 32.7473 17.4127C32.7473 12.3516 36.6637 9.09799 40.8813 9.09799C44.1047 9.09799 46.3039 9.97164 46.3039 10.8152C46.3039 11.7491 45.1591 12.7733 44.2554 12.7733C43.4118 12.7733 42.0562 11.8394 39.7365 9.61013C37.1156 10.0018 35.4285 12.5926 35.4285 15.4847C35.4285 19.4311 37.8386 22.2328 41.6645 22.2328C43.8939 22.2328 45.611 21.2688 46.8763 19.8529L47.1474 20.1542C45.7617 22.263 43.3817 24.673 39.8871 24.673Z" fill="white"/>
<path d="M47.7436 24.3718V23.95C48.7378 23.6186 48.9486 22.7149 48.9486 20.5458V4.57912C48.9486 2.8017 48.4968 2.50044 47.7436 2.16906V1.7473L51.7202 0L52.0215 0.241005V11.8093C53.6784 10.4537 55.8474 9.09799 58.1973 9.09799C60.9688 9.09799 62.8366 10.544 62.8366 14.0687V20.5458C62.8366 22.7149 63.0475 23.6186 64.0417 23.95V24.3718H58.5588V23.95C59.5529 23.6186 59.7638 22.7149 59.7638 20.5458V14.611C59.7638 11.8997 58.5889 10.303 56.3596 10.303C54.9437 10.303 53.6483 10.9959 52.0215 12.3215V20.5458C52.0215 22.7149 52.2323 23.6186 53.2265 23.95V24.3718H47.7436Z" fill="white"/>
<path d="M65.4893 24.3718V23.95C66.4835 23.6186 66.6944 22.7149 66.6944 20.5458V13.6169C66.6944 11.8394 66.2425 11.5382 65.4893 11.2068V10.785L69.466 9.03774L69.7672 9.27874V20.5458C69.7672 22.7149 69.9781 23.6186 70.9722 23.95V24.3718H65.4893ZM66.0015 5.96491C66.0015 4.79 66.9053 3.88623 68.05 3.88623C69.2551 3.88623 70.0986 4.79 70.0986 5.96491C70.0986 7.10969 69.1948 8.01346 68.05 8.01346C66.9053 8.01346 66.0015 7.10969 66.0015 5.96491Z" fill="white"/>
<path d="M73.6605 12.8336C72.817 10.8453 72.1843 10.0319 71.5216 9.73063V9.30887H76.6731V9.73063C75.6789 10.062 76.1007 10.8453 76.9743 12.8336L80.5593 21.2989L83.8129 12.8938C84.566 10.8453 84.3552 9.97164 83.3309 9.73063V9.30887H86.5543V9.73063C85.6807 10.0319 85.0782 10.8453 84.2949 12.8938L79.8965 24.3718H78.4806L73.6605 12.8336Z" fill="white"/>
<path d="M93.2251 24.673C89.8811 24.673 86.0853 22.2931 86.0853 17.4127C86.0853 12.2913 90.092 9.09799 94.0084 9.09799C98.0753 9.09799 100.244 11.8997 100.244 14.5206H88.8267C88.7966 14.852 88.7665 15.1533 88.7665 15.4847C88.7665 19.4311 91.1765 22.2328 95.0025 22.2328C97.2318 22.2328 98.949 21.2688 100.214 19.8529L100.485 20.1542C99.0996 22.263 96.7197 24.673 93.2251 24.673ZM88.8568 14.0989H97.2017C96.8101 11.6286 95.1531 9.67038 93.0745 9.64025C90.5138 9.61013 89.2184 11.7491 88.8568 14.0989Z" fill="white"/>
<path d="M101.77 30.186C100.534 30.2162 99.5703 29.8245 99.5703 29.222C99.5703 28.6496 100.384 27.3241 101.8 27.3241C102.673 27.3241 104.33 27.5952 105.897 27.8664C106.62 27.0831 107.343 25.9082 108.006 24.5224L102.944 12.8336C102.101 10.8152 101.288 10.062 100.595 9.73063V9.30887H105.927V9.73063C104.933 10.062 105.385 10.8152 106.258 12.8035L109.693 20.6362L113.067 12.8336C113.91 10.8152 113.76 9.97164 112.735 9.73063V9.30887H116.17V9.73063C115.266 10.062 114.422 10.8152 113.549 12.8035L108.939 23.468C106.65 28.74 104.541 30.1258 101.77 30.186Z" fill="white"/>
</svg>
