<svg width="180" height="36" viewBox="0 0 180 36" fill="none" xmlns="http://www.w3.org/2000/svg">
<path d="M163.84 35.1607C162.454 35.1946 161.372 34.7551 161.372 34.0789C161.372 33.4366 162.285 31.949 163.874 31.949C164.854 31.949 166.713 32.2533 168.471 32.5576C169.283 31.6786 170.094 30.3601 170.838 28.805L165.158 15.6877C164.212 13.4226 163.299 12.5774 162.521 12.2055V11.7322H168.505V12.2055C167.39 12.5774 167.897 13.4226 168.877 15.6539L172.731 24.4438L176.518 15.6877C177.464 13.4226 177.295 12.476 176.146 12.2055V11.7322H180V12.2055C178.986 12.5774 178.039 13.4226 177.059 15.6539L171.886 27.6217C169.317 33.538 166.95 35.0931 163.84 35.1607Z" fill="white"/>
<path d="M148.473 15.6877C147.526 13.4564 146.816 12.5436 146.073 12.2055V11.7322H151.854V12.2055C150.738 12.5774 151.211 13.4564 152.192 15.6877L156.215 25.1876L159.866 15.7553C160.711 13.4564 160.475 12.476 159.325 12.2055V11.7322H162.943V12.2055C161.962 12.5436 161.286 13.4564 160.407 15.7553L155.471 28.6359H153.882L148.473 15.6877Z" fill="white"/>
<path d="M139.303 28.6359V28.1626C140.419 27.7907 140.656 26.7765 140.656 24.3423V16.5666C140.656 14.572 140.149 14.2339 139.303 13.862V13.3887L143.766 11.4279L144.104 11.6984V24.3423C144.104 26.7765 144.341 27.7907 145.456 28.1626V28.6359H139.303ZM139.878 7.97955C139.878 6.66106 140.892 5.64684 142.177 5.64684C143.529 5.64684 144.476 6.66106 144.476 7.97955C144.476 9.26424 143.462 10.2785 142.177 10.2785C140.892 10.2785 139.878 9.26424 139.878 7.97955Z" fill="white"/>
<path d="M119.389 28.6359V28.1626C120.505 27.7907 120.741 26.7765 120.741 24.3423V6.42439C120.741 4.42975 120.234 4.09168 119.389 3.71979V3.24649L123.851 1.28566L124.19 1.55612V14.5382C126.049 13.0168 128.483 11.4955 131.12 11.4955C134.23 11.4955 136.326 13.1183 136.326 17.0737V24.3423C136.326 26.7765 136.563 27.7907 137.679 28.1626V28.6359H131.526V28.1626C132.641 27.7907 132.878 26.7765 132.878 24.3423V17.6823C132.878 14.6396 131.56 12.8478 129.058 12.8478C127.469 12.8478 126.015 13.6254 124.19 15.1129V24.3423C124.19 26.7765 124.426 27.7907 125.542 28.1626V28.6359H119.389Z" fill="white"/>
<path d="M110.572 28.974C106.414 28.974 102.56 26.0665 102.56 20.8264C102.56 15.1467 106.955 11.4955 111.688 11.4955C115.305 11.4955 117.773 12.4759 117.773 13.4226C117.773 14.4706 116.489 15.62 115.474 15.62C114.528 15.62 113.006 14.572 110.403 12.0703C107.462 12.5098 105.569 15.4172 105.569 18.6627C105.569 23.0915 108.273 26.2356 112.567 26.2356C115.069 26.2356 116.996 25.1537 118.416 23.5648L118.72 23.9029C117.165 26.2694 114.494 28.974 110.572 28.974Z" fill="white"/>
<path d="M88.8563 28.6359V28.1626C89.972 27.7908 90.2086 26.7765 90.2086 24.3424V16.5667C90.2086 14.5721 89.7015 14.234 88.8563 13.8621V13.3888L93.3189 11.428L93.657 11.6984V15.7891C94.1641 14.6059 95.0431 13.5578 96.1249 12.8141C97.3758 11.9351 98.6605 11.4956 100.283 11.4956C101.433 11.4956 102.447 11.7998 102.447 12.5098C102.447 13.2536 101.703 14.7073 100.148 14.7073C99.2014 14.7073 97.9167 14.3692 95.753 13.6931C94.9079 14.403 93.7584 15.9244 93.657 17.6147V24.3424C93.657 26.7765 93.8936 27.7908 95.0093 28.1626V28.6359H88.8563Z" fill="white"/>
<path d="M76.9243 11.7863C78.2342 11.7863 79.1822 12.1137 79.7681 12.7687C80.3886 13.4236 80.6816 14.2164 80.6471 15.1471L82.7671 11.7863H86.0245L78.6306 23.9371C77.9412 25.109 77.6999 26.0397 77.9068 26.7291C78.1136 27.4186 78.4927 27.7633 79.0443 27.7633C79.8371 27.7633 80.7506 27.2807 81.7847 26.3155C82.8188 25.3159 84.2321 23.8509 86.0245 21.9205C86.5071 21.369 86.9552 20.8692 87.3688 20.4211C87.817 19.9385 88.1961 19.5076 88.5064 19.1284C88.8855 18.7148 89.8993 17.4993 90.2095 17.1201H91.0908C89.5397 18.9126 87.6101 21.3001 86.4382 22.6444C85.3006 23.9888 84.2665 25.0918 83.3358 25.9536C82.4396 26.8153 81.6295 27.4703 80.9057 27.9184C80.1818 28.332 79.4752 28.5388 78.7857 28.5388C77.855 28.5388 77.0967 28.1252 76.5107 27.2979C75.9592 26.4706 75.7868 25.402 75.9936 24.0922C75.0974 25.402 74.1323 26.5051 73.0981 27.4013C72.064 28.2975 70.892 28.7457 69.5822 28.7457C68.5481 28.7457 67.6863 28.4354 66.9969 27.815C66.342 27.16 65.9111 26.3155 65.7043 25.2814C65.4974 24.2473 65.5319 23.0753 65.8077 21.7654C66.1179 20.4555 66.7384 19.1284 67.6691 17.7841C68.9789 15.8882 70.4095 14.4232 71.9606 13.3891C73.5463 12.3206 75.2008 11.7863 76.9243 11.7863ZM77.4414 12.4584C76.3384 12.4584 75.2353 12.941 74.1323 13.9062C73.0292 14.8369 71.9434 16.1812 70.8748 17.9392C70.1165 19.2146 69.5477 20.4556 69.1685 21.662C68.8238 22.834 68.6515 23.8853 68.6515 24.816C68.6515 25.7123 68.7894 26.4361 69.0651 26.9877C69.3753 27.5392 69.8062 27.815 70.3578 27.815C70.9437 27.815 71.5642 27.5564 72.2192 27.0394C72.8741 26.5223 73.5463 25.8329 74.2357 24.9712C74.9251 24.1094 75.6145 23.127 76.3039 22.0239C77.0278 20.9209 77.7516 19.8006 78.4755 18.6631C79.0615 17.7324 79.4234 16.8879 79.5613 16.1295C79.7337 15.3712 79.7509 14.7335 79.613 14.2164C79.5096 13.6649 79.2511 13.234 78.8374 12.9238C78.4583 12.6136 77.9929 12.4584 77.4414 12.4584Z" fill="white"/>
<path d="M41.389 19.414C37.9262 19.3949 30.5393 17.9989 30.5393 17.9989C30.5393 17.9989 37.6453 16.6844 41.4048 16.7056C42.1504 16.7098 43.5084 16.8655 43.501 18.072C43.4947 19.1969 42.1345 19.4182 41.389 19.414Z" fill="white"/>
<path d="M19.9631 16.5848C23.4259 16.6039 30.8128 17.9999 30.8128 17.9999C30.8128 17.9999 23.7068 19.3144 19.9473 19.2933C19.2017 19.2901 17.8447 19.1333 17.8511 17.9279C17.8574 16.803 19.2176 16.5817 19.9631 16.5859L19.9631 16.5848Z" fill="white"/>
<path d="M29.2657 28.7065C29.2847 25.2334 30.6766 17.8241 30.6766 17.8241C30.6766 17.8241 31.9871 24.9516 31.966 28.7224C31.9618 29.4702 31.8065 30.8324 30.6037 30.825C29.4822 30.8186 29.2615 29.4543 29.2657 28.7065Z" fill="white"/>
<path d="M32.0853 7.29345C32.0663 10.7666 30.6745 18.1758 30.6745 18.1758C30.6745 18.1758 29.3639 11.0484 29.385 7.27756C29.3893 6.52975 29.5445 5.16866 30.7473 5.17501C31.8688 5.18137 32.0895 6.54564 32.0853 7.29345Z" fill="white"/>
<path d="M37.2016 26.5101C34.785 24.0668 30.5808 17.9033 30.5808 17.9033C30.5808 17.9033 36.49 21.9675 39.1133 24.6206C39.6335 25.1468 40.4773 26.2091 39.6255 27.0505C38.8316 27.8355 37.7218 27.0363 37.2016 26.5101Z" fill="white"/>
<path d="M24.1513 9.48907C26.5679 11.9324 30.772 18.0959 30.772 18.0959C30.772 18.0959 24.8629 14.0317 22.2395 11.3786C21.7185 10.8532 20.8763 9.79088 21.7266 8.94944C22.5205 8.16449 23.6303 8.96365 24.1505 9.48982L24.1513 9.48907Z" fill="white"/>
<path d="M22.173 24.5237C24.6236 22.0997 30.7998 17.877 30.7998 17.877C30.7998 17.877 26.7177 23.7984 24.0567 26.4297C23.529 26.9515 22.4642 27.7985 21.6253 26.9492C20.8427 26.1577 21.6452 25.0455 22.173 24.5237Z" fill="white"/>
<path d="M39.1783 11.4756C36.7277 13.8996 30.5515 18.1223 30.5515 18.1223C30.5515 18.1223 34.6336 12.2009 37.2946 9.56951C37.8223 9.0477 38.8864 8.20148 39.726 9.05003C40.5086 9.84151 39.7061 10.9538 39.1783 11.4756Z" fill="white"/>
<path d="M51.4126 18.0872C51.4126 9.6381 44.5632 2.78878 36.1142 2.78875L32.7676 2.78875C32.6276 2.78875 32.5141 2.67524 32.5141 2.53522L32.5141 1.0141C32.5141 0.874082 32.6276 0.760576 32.7676 0.760576L36.1142 0.760576C45.6833 0.760606 53.4408 8.51797 53.4408 18.0872C53.4408 27.6563 45.6833 35.4137 36.1142 35.4137L32.7676 35.4137C32.6276 35.4137 32.5141 35.3002 32.5141 35.1602L32.5141 33.6391C32.5141 33.4991 32.6276 33.3856 32.7676 33.3856L36.1142 33.3856C44.5632 33.3855 51.4126 26.5362 51.4126 18.0872Z" fill="white"/>
<path d="M0 18.0872C-2.62087e-07 8.51795 7.75738 0.760573 17.3266 0.76057L28.5481 0.76057C28.6881 0.76057 28.8016 0.874075 28.8016 1.01409L28.8016 2.53522C28.8016 2.67523 28.6881 2.78874 28.5481 2.78874L17.3266 2.78874C8.8775 2.78874 2.02817 9.63808 2.02817 18.0872C2.02817 26.5362 8.87751 33.3856 17.3266 33.3856L28.5481 33.3856C28.6881 33.3856 28.8016 33.4991 28.8016 33.6391L28.8016 35.1602C28.8016 35.3002 28.6881 35.4137 28.5481 35.4137L17.3266 35.4137C7.75738 35.4137 2.62087e-07 27.6564 0 18.0872Z" fill="white"/>
</svg>
